<svg xmlns="http://www.w3.org/2000/svg" viewBox="0 0 500 500" width="200" height="200"><ellipse cx="250" cy="357.87" rx="223" ry="128.32" fill="#f5f5f5"/><g fill="#e0e0e0"><ellipse cx="384.43" cy="338.75" rx="37.32" ry="21.54"/><path d="M191.3 461.12l-56.06-32.47c-1.27-.74-1.27-1.94 0-2.68l134.29-77.53a5.11 5.11 0 014.63 0l56.15 32.42c1.27.73 1.27 1.93 0 2.67l-134.4 77.59a5.08 5.08 0 01-4.61 0z"/></g><path d="M159.48 394.28s2.18-14.67-1.95-27.6-12-22.43-20.91-25.57-18.44 3.25-10.26 11.58 23.88 18.78 26.09 42.36z" fill="#3980c0"/><path d="M159.48 394.28s2.18-14.67-1.95-27.6-12-22.43-20.91-25.57-18.44 3.25-10.26 11.58 23.88 18.78 26.09 42.36z" opacity=".15"/><path d="M157.81 389.87h.1a.5.5 0 00.44-.56c-3.29-26.15-18.89-40.87-26.69-45a.5.5 0 00-.47.89c7.64 4 22.93 18.5 26.16 44.23a.5.5 0 00.46.44z" fill="#fff"/><path d="M114.14 373.51c.29 2 1.94 3.4 3.51 4.6s3.28 2.51 3.78 4.42c1 3.87-3.46 7.67-2.3 11.49a6.2 6.2 0 003.42 3.49c1.25.61 2.59 1 3.9 1.47a19.52 19.52 0 001.94.38 8.94 8.94 0 015.35 2.12c2.23 2.22 2.11 5.79 3 8.81a13.05 13.05 0 007.36 8.07c2.89 1.23 7.57 1.81 8.72.7.87-.84 0-4.38.25-5.55a50.5 50.5 0 001.34-9.22 17.5 17.5 0 01.56-4.21c.43-1.53.86-3.06 1.28-4.6s1.2-2.86 1.07-4.69a17.67 17.67 0 00-1.39-5.08q-.94-2.41-1.93-4.82a24.89 24.89 0 00-2.81-5.42 13.05 13.05 0 00-9-5.12c-2.91-.31-6.08.5-8.92-.43s-5.29-2.42-8.21-3a10.33 10.33 0 00-8.86 1.88 5.51 5.51 0 00-2.06 4.71z" fill="#3980c0"/><path d="M152.42 410.94a.45.45 0 00.45-.44c.3-28-26.12-39.42-32.68-40.75a.45.45 0 00-.52.35.43.43 0 00.35.52c6.41 1.3 32.26 12.46 32 39.87a.45.45 0 00.4.45z" fill="#fff"/><path d="M125.57 389.23a.4.4 0 00.26-.06 23.71 23.71 0 0120.17-.06.44.44 0 00.58-.23.45.45 0 00-.22-.59 24.64 24.64 0 00-21 .11.44.44 0 00-.16.61.42.42 0 00.37.22z" fill="#fff"/><path d="M288.87 126.26a1.19 1.19 0 00-.24-.63l-.14-.14-.16-.1a1.08 1.08 0 00-.41-.1 1.48 1.48 0 00-.62.11l-12.91 5.15a1.51 1.51 0 01-2.06-1.07c-.13-.48-.27-.95-.42-1.42s-.26-.77-.39-1.14c-.19-.55-.41-1.09-.64-1.6-.11-.26-.23-.52-.34-.77l-.36-.74c-.12-.25-.25-.48-.38-.72a3.11 3.11 0 01-.31-.84 3.36 3.36 0 01.25-2.23l2.64-4.79 6.55-11.85a1.92 1.92 0 00-.63-2.51l-9-5.72-11.41-7.28-8.89-5.7a.75.75 0 00-.21-.12l-.18-.07h-.07a1 1 0 00-.23 0 1.57 1.57 0 00-.43 0h-.17a.08.08 0 00-.08 0h-.15a.16.16 0 00-.09 0h-.24a.69.69 0 00-.22.14.83.83 0 00-.17.15l-.16.18-8 10.93-9.21-5.88-.17-.12-2.79-1.78-3.78-2.41a.35.35 0 00-.12-.07h-.07a.69.69 0 00-.2 0h-.37a1.84 1.84 0 00-.36.15L206.68 91h-.06a.16.16 0 00-.08.06h-.06l-.21.15-.11.08-.07.08h-.06l-.15.14a.6.6 0 00-.11.12l-.15.18-.15.19a2.59 2.59 0 00-.19.31.41.41 0 01-.07.15v.12a.61.61 0 000 .12c0 .11-.09.24-.13.37a.49.49 0 000 .16 1.55 1.55 0 000 .21l-2.13 15.76c0 .14-.06.28-.09.42a1.87 1.87 0 01-.07.22 2.09 2.09 0 00-.08.23 5.51 5.51 0 01-1.37 2c-.72.61-1.43 1.23-2.13 1.87-.53.47-1.05 1-1.58 1.46l-1.76 1.6c-.52.51-1 1-1.53 1.56s-1 1.06-1.5 1.61a1.21 1.21 0 01-.2.19 1.18 1.18 0 01-.22.17 1.1 1.1 0 01-.26.14.61.61 0 01-.23.11.86.86 0 01-.21.07h-.24a1.11 1.11 0 01-.25 0h-.08a.31.31 0 01-.16 0 .33.33 0 01-.17 0 2.12 2.12 0 01-.44 0 .86.86 0 01-.23-.06h-.11l-9-3.6a1.43 1.43 0 00-.34-.09h-.32a2.21 2.21 0 00-2 .95l-11.26 17.64a1.58 1.58 0 00-.16.35v.06a2.22 2.22 0 00-.09.37v.08a.9.9 0 000 .16v.35a2.21 2.21 0 00.08.37 2.43 2.43 0 00.27.62l.13.18a1.36 1.36 0 00.17.17l7 6.64c.07.08.14.15.2.23a.58.58 0 01.11.15c.06.08.11.18.17.28s.07.17.1.26a.13.13 0 010 .06 1.91 1.91 0 01.12.47.22.22 0 010 .11.66.66 0 010 .14v.81a1.7 1.7 0 01-.1.32 86.16 86.16 0 00-3.78 10.88 4 4 0 01-.29.74 1.41 1.41 0 01-.13.24v.06c0 .09-.1.18-.16.27a.2.2 0 01-.06.07.34.34 0 01-.07.11 1.34 1.34 0 01-.11.14c-.07.1-.16.2-.24.3l-.09.09a1.37 1.37 0 01-.16.18 5 5 0 01-.58.48L156 170.06a2.17 2.17 0 00-.3.23 1.29 1.29 0 00-.17.16l-.12.13a1.37 1.37 0 00-.19.22 2.4 2.4 0 00-.21.31l-.15.25-.13.27a1.28 1.28 0 00-.11.27.7.7 0 00-.06.19c0 .11-.06.22-.09.32a2.6 2.6 0 000 .37l-.73 16.42a1.17 1.17 0 000 .27v.15a.47.47 0 00.06.2.63.63 0 00.13.23.58.58 0 00.18.17l.09.05 15.94 10.19-6.54 11.84a.72.72 0 00-.09.2 1.87 1.87 0 00-.14.61 1.58 1.58 0 000 .37 2.25 2.25 0 00.09.35 2.14 2.14 0 00.21.43l.15.2a2.52 2.52 0 00.39.33l21.8 14a1.29 1.29 0 00.33.17l7.15 4.55a1.91 1.91 0 002.54-.47l8-10.92 16 10.19a1 1 0 00.25.13 1.21 1.21 0 001-.12l14.59-7.58a2.89 2.89 0 00.63-.46 4.22 4.22 0 00.55-.64 3.42 3.42 0 00.62-1.49l2.14-15.76a5.3 5.3 0 011.61-2.88 84.05 84.05 0 008.26-8 2.71 2.71 0 012.83-.66l9 3.59a2.23 2.23 0 002.6-.85L275.42 180a2.24 2.24 0 00-.34-2.72l-7.08-6.64a2.74 2.74 0 01-.58-2.85 84.48 84.48 0 003.78-10.87 5.33 5.33 0 011.94-2.68l13.4-8.56a3.85 3.85 0 001.58-2.73l.73-16.43c.03-.09.02-.18.02-.26zm-51 12.39c-.71 16-12.81 35-27 42.36a29.07 29.07 0 01-4.9 2c-.11-.8-.18-1.64-.22-2.51v-2.77c.71-16 12.82-35 27.05-42.37.43-.23.85-.44 1.28-.63.21-.11.43-.2.63-.29l.63-.26a23.87 23.87 0 012.35-.85 30.23 30.23 0 01.19 5.32z" fill="#3980c0"/><path d="M288.87 126.26a1.19 1.19 0 00-.24-.63l-.14-.14-.16-.1a1.08 1.08 0 00-.41-.1 1.48 1.48 0 00-.62.11l-12.91 5.15a1.51 1.51 0 01-2.06-1.07c-.13-.48-.27-.95-.42-1.42s-.26-.77-.39-1.14c-.19-.55-.41-1.09-.64-1.6-.11-.26-.23-.52-.34-.77l-.36-.74c-.12-.25-.25-.48-.38-.72a3.11 3.11 0 01-.31-.84 3.36 3.36 0 01.25-2.23l2.64-4.79 6.55-11.85a1.92 1.92 0 00-.63-2.51l-9-5.72-11.41-7.28-8.89-5.7a.75.75 0 00-.21-.12l-.18-.07h-.07a1 1 0 00-.23 0 1.57 1.57 0 00-.43 0h-.17a.08.08 0 00-.08 0h-.15a.16.16 0 00-.09 0h-.24a.69.69 0 00-.22.14.83.83 0 00-.17.15l-.16.18-8 10.93-9.21-5.88-.17-.12-2.79-1.78-3.78-2.41a.35.35 0 00-.12-.07h-.07a.69.69 0 00-.2 0h-.37a1.84 1.84 0 00-.36.15L206.68 91h-.06a.16.16 0 00-.08.06h-.06l-.21.15-.11.08-.07.08h-.06l-.15.14a.6.6 0 00-.11.12l-.15.18-.15.19a2.59 2.59 0 00-.19.31.41.41 0 01-.07.15v.12a.61.61 0 000 .12c0 .11-.09.24-.13.37a.49.49 0 000 .16 1.55 1.55 0 000 .21l-2.13 15.76c0 .14-.06.28-.09.42a1.87 1.87 0 01-.07.22 2.09 2.09 0 00-.08.23 5.51 5.51 0 01-1.37 2c-.72.61-1.43 1.23-2.13 1.87-.53.47-1.05 1-1.58 1.46l-1.76 1.6c-.52.51-1 1-1.53 1.56s-1 1.06-1.5 1.61a1.21 1.21 0 01-.2.19 1.18 1.18 0 01-.22.17 1.1 1.1 0 01-.26.14.61.61 0 01-.23.11.86.86 0 01-.21.07h-.24a1.11 1.11 0 01-.25 0h-.08a.31.31 0 01-.16 0 .33.33 0 01-.17 0 2.12 2.12 0 01-.44 0 .86.86 0 01-.23-.06h-.11l-9-3.6a1.43 1.43 0 00-.34-.09h-.32a2.21 2.21 0 00-2 .95l-11.26 17.64a1.58 1.58 0 00-.16.35v.06a2.22 2.22 0 00-.09.37v.08a.9.9 0 000 .16v.35a2.21 2.21 0 00.08.37 2.43 2.43 0 00.27.62l.13.18a1.36 1.36 0 00.17.17l7 6.64c.07.08.14.15.2.23a.58.58 0 01.11.15c.06.08.11.18.17.28s.07.17.1.26a.13.13 0 010 .06 1.91 1.91 0 01.12.47.22.22 0 010 .11.66.66 0 010 .14v.81a1.7 1.7 0 01-.1.32 86.16 86.16 0 00-3.78 10.88 4 4 0 01-.29.74 1.41 1.41 0 01-.13.24v.06c0 .09-.1.18-.16.27a.2.2 0 01-.06.07.34.34 0 01-.07.11 1.34 1.34 0 01-.11.14c-.07.1-.16.2-.24.3l-.09.09a1.37 1.37 0 01-.16.18 5 5 0 01-.58.48L156 170.06a2.17 2.17 0 00-.3.23 1.29 1.29 0 00-.17.16l-.12.13a1.37 1.37 0 00-.19.22 2.4 2.4 0 00-.21.31l-.15.25-.13.27a1.28 1.28 0 00-.11.27.7.7 0 00-.06.19c0 .11-.06.22-.09.32a2.6 2.6 0 000 .37l-.73 16.42a1.17 1.17 0 000 .27v.15a.47.47 0 00.06.2.63.63 0 00.13.23.58.58 0 00.18.17l.09.05 15.94 10.19-6.54 11.84a.72.72 0 00-.09.2 1.87 1.87 0 00-.14.61 1.58 1.58 0 000 .37 2.25 2.25 0 00.09.35 2.14 2.14 0 00.21.43l.15.2a2.52 2.52 0 00.39.33l21.8 14a1.29 1.29 0 00.33.17l7.15 4.55a1.91 1.91 0 002.54-.47l8-10.92 16 10.19a1 1 0 00.25.13 1.21 1.21 0 001-.12l14.59-7.58a2.89 2.89 0 00.63-.46 4.22 4.22 0 00.55-.64 3.42 3.42 0 00.62-1.49l2.14-15.76a5.3 5.3 0 011.61-2.88 84.05 84.05 0 008.26-8 2.71 2.71 0 012.83-.66l9 3.59a2.23 2.23 0 002.6-.85L275.42 180a2.24 2.24 0 00-.34-2.72l-7.08-6.64a2.74 2.74 0 01-.58-2.85 84.48 84.48 0 003.78-10.87 5.33 5.33 0 011.94-2.68l13.4-8.56a3.85 3.85 0 001.58-2.73l.73-16.43c.03-.09.02-.18.02-.26zm-51 12.39c-.71 16-12.81 35-27 42.36a29.07 29.07 0 01-4.9 2c-.11-.8-.18-1.64-.22-2.51v-2.77c.71-16 12.82-35 27.05-42.37.43-.23.85-.44 1.28-.63.21-.11.43-.2.63-.29l.63-.26a23.87 23.87 0 012.35-.85 30.23 30.23 0 01.19 5.32z" opacity=".3"/><path d="M182 200.8l-6.35 2.53a1.2 1.2 0 01-1.13-.05l-4.32-2.75-6.54 11.84a1.92 1.92 0 00.64 2.51l21.8 14a1.91 1.91 0 001.37.26l6-21z" opacity=".05"/><path d="M195.68 160.09l-20.38-13a2.67 2.67 0 00-.75-2l-7-6.63a2.15 2.15 0 01-.64-1.34l20.37 13a2.14 2.14 0 00.63 1.3l7 6.64a2.67 2.67 0 01.77 2.03z" fill="#3980c0"/><path d="M195.68 160.09l-20.38-13a2.67 2.67 0 00-.75-2l-7-6.63a2.15 2.15 0 01-.64-1.34l20.37 13a2.14 2.14 0 00.63 1.3l7 6.64a2.67 2.67 0 01.77 2.03z" opacity=".4"/><path d="M212.1 133.87a2.66 2.66 0 01-1.72 0l-9-3.59a1.86 1.86 0 00-.66-.14l-20.35-13a2 2 0 01.65.13l9 3.59a2.6 2.6 0 001.7 0z" fill="#3980c0"/><path d="M212.1 133.87a2.66 2.66 0 01-1.72 0l-9-3.59a1.86 1.86 0 00-.66-.14l-20.35-13a2 2 0 01.65.13l9 3.59a2.6 2.6 0 001.7 0z" opacity=".2"/><path d="M225.49 105.67a3.63 3.63 0 00-.27.85l-2.12 15.77a3.62 3.62 0 01-.25.87l-20.36-13a3.93 3.93 0 00.24-.87l2.13-15.76a2.94 2.94 0 01.27-.86z" fill="#3980c0"/><path d="M225.49 105.67a3.63 3.63 0 00-.27.85l-2.12 15.77a3.62 3.62 0 01-.25.87l-20.36-13a3.93 3.93 0 00.24-.87l2.13-15.76a2.94 2.94 0 01.27-.86z" opacity=".2"/><path d="M272.37 115.22l16 10.17a1.21 1.21 0 00-1 0l-12.92 5.14a1.51 1.51 0 01-2.06-1.07 28.31 28.31 0 00-2.55-6.4 3.52 3.52 0 010-3.07zm16.04 10.21zm-19.08-30.29a1.93 1.93 0 00-2.51.5L255.6 111a2.73 2.73 0 01-.8.7l-5.74-3.7-5.35-3.43-.41-7.28a1.18 1.18 0 00-.53-1h-.06l-4.25-2.7 8-10.93a1.91 1.91 0 012.51-.48l8.94 5.71zm-78.55 78.4a4.42 4.42 0 01-1 1l-13.4 8.57a3.11 3.11 0 00-1 1l-20.34-13a3.33 3.33 0 01.93-1l13.41-8.56a4.84 4.84 0 001-1zm9.62-43.41a2.24 2.24 0 00-1.6 1l-11.27 17.65a2.07 2.07 0 00-.29 1.41l-20.36-13a2.08 2.08 0 01.29-1.38l11.25-17.64a2.22 2.22 0 011.76-1z" fill="#3980c0"/><path d="M242.71 96.27a1.26 1.26 0 00-1.09.09l-6 3.1-8.62 4.48a3.81 3.81 0 00-1.55 1.73l-20.37-13a3.79 3.79 0 011.59-1.67l14.59-7.57a1.42 1.42 0 01.72-.18.7.7 0 01.42.13l6.68 4.24.17.11 9.21 5.89z" fill="#3980c0"/><path d="M272.37 115.22l16 10.17a1.21 1.21 0 00-1 0l-12.92 5.14a1.51 1.51 0 01-2.06-1.07 28.31 28.31 0 00-2.55-6.4 3.52 3.52 0 010-3.07z" opacity=".1"/><path d="M269.33 95.14a1.93 1.93 0 00-2.51.5L255.6 111a2.73 2.73 0 01-.8.7l-5.74-3.7-5.35-3.43-.41-7.28a1.18 1.18 0 00-.53-1h-.06l-4.25-2.7 8-10.93a1.91 1.91 0 012.51-.48l8.94 5.71zm-78.55 78.4a4.42 4.42 0 01-1 1l-13.4 8.57a3.11 3.11 0 00-1 1l-20.34-13a3.33 3.33 0 01.93-1l13.41-8.56a4.84 4.84 0 001-1z" opacity=".2"/><path d="M200.4 130.13a2.24 2.24 0 00-1.6 1l-11.27 17.65a2.07 2.07 0 00-.29 1.41l-20.36-13a2.08 2.08 0 01.29-1.38l11.25-17.64a2.22 2.22 0 011.76-1zm42.31-33.86a1.26 1.26 0 00-1.09.09l-6 3.1-8.62 4.48a3.81 3.81 0 00-1.55 1.73l-20.37-13a3.79 3.79 0 011.59-1.67l14.59-7.57a1.42 1.42 0 01.72-.18.7.7 0 01.42.13l6.68 4.24.17.11 9.21 5.89z" opacity=".1"/><path d="M193.45 208.1L182 200.8l6.55-2.61a1.5 1.5 0 012.07 1.06 28.12 28.12 0 002.55 6.41 3.56 3.56 0 01.28 2.44zm26.64 24.26l-16-10.19 3.24-4.42a3.51 3.51 0 012.82-1.25 28.55 28.55 0 006.88-.39 1.5 1.5 0 011.83 1.42l.78 13.88a1.2 1.2 0 00.45.95z" opacity=".15"/><path d="M288.87 126.26a1.19 1.19 0 00-.24-.63l-.14-.14-.16-.1a1.08 1.08 0 00-.41-.1 1.48 1.48 0 00-.62.11l-12.91 5.15a1.51 1.51 0 01-2.06-1.07c-.13-.48-.27-.95-.42-1.42s-.26-.77-.39-1.14c-.19-.55-.41-1.09-.64-1.6-.11-.26-.23-.52-.34-.77l-.36-.74c-.12-.25-.25-.48-.38-.72a3.11 3.11 0 01-.31-.84 3.36 3.36 0 01.25-2.23l2.64-4.79 6.55-11.85a1.92 1.92 0 00-.63-2.51l-8.93-5.7h-.19l-.2-.08h-.44a2 2 0 00-1.49.59.84.84 0 00-.15.18l-4.12 5.63-7.18 9.51a1 1 0 01-.17.19.67.67 0 01-.14.15 2.47 2.47 0 01-.49.36 3.71 3.71 0 01-2 .55c-.76-.06-1.54-.08-2.33-.07a30.46 30.46 0 00-4.55.45 1.5 1.5 0 01-1.84-1.42l-.37-6.6-.4-7.28a1.61 1.61 0 00-.06-.33 1 1 0 00-.1-.29.94.94 0 00-.14-.19.06.06 0 000-.05l-.2-.15h-.07l-.15-.05a1.34 1.34 0 00-.91.15L227 103.94a2.31 2.31 0 00-.53.37l-.14.13a4.15 4.15 0 00-.51.6c-.09.12-.16.23-.24.36l-.13.27a3.2 3.2 0 00-.17.43 2.53 2.53 0 00-.1.42l-1.51 11.23-.61 4.54c0 .16-.07.34-.12.52a1.66 1.66 0 01-.13.35 5.34 5.34 0 01-1.36 2 85.36 85.36 0 00-8.28 8 2.46 2.46 0 01-1.12.68 2.68 2.68 0 01-.49.11h-.24a2.29 2.29 0 01-1-.15l-9-3.59a1.49 1.49 0 00-.3-.09.84.84 0 00-.27 0h-.1a1.42 1.42 0 00-.29 0 2.21 2.21 0 00-1.65 1l-2.28 3.58-6.68 10.49-2.29 3.58a2.22 2.22 0 00-.19 1.91 2 2 0 00.52.8l7 6.64a2.74 2.74 0 01.58 2.85 86 86 0 00-3.78 10.87 5.29 5.29 0 01-1.94 2.68l-3.72 2.48-9.55 6.11a3.8 3.8 0 00-1.57 2.72l-.73 16.43a1.06 1.06 0 001.57 1.12l12.91-5.14a1.51 1.51 0 012.07 1.06 29.26 29.26 0 001.5 4.32c.32.73.66 1.42 1 2.09a3.45 3.45 0 01.06 3.07L184 225.36a1.91 1.91 0 00.64 2.51l8.92 5.69a1.91 1.91 0 002.54-.47l8-10.92 3.24-4.42a3.5 3.5 0 012.81-1.25 28.55 28.55 0 006.88-.39 1.51 1.51 0 011.84 1.42l.78 13.88a1.23 1.23 0 00.4.93.72.72 0 00.25.12 1.21 1.21 0 001-.12l14.59-7.58a2.89 2.89 0 00.63-.46 4.22 4.22 0 00.55-.64 3.42 3.42 0 00.62-1.49l2.14-15.76a5.3 5.3 0 011.61-2.88 84.05 84.05 0 008.26-8 2.71 2.71 0 012.83-.66l9 3.59a2.23 2.23 0 002.6-.85L275.42 180a2.24 2.24 0 00-.34-2.72l-7.08-6.64a2.74 2.74 0 01-.58-2.85 84.48 84.48 0 003.78-10.87 5.33 5.33 0 011.94-2.68l13.4-8.56a3.85 3.85 0 001.58-2.73l.73-16.43c.03-.09.02-.18.02-.26zm-34.82 38.79a55.15 55.15 0 01-2.38 5.28 60.5 60.5 0 01-6.31 9.89 53.65 53.65 0 01-3.74 4.32 44.11 44.11 0 01-11.43 8.81 23.53 23.53 0 01-10.68 3c-7.23 0-12.39-4.85-13.57-13.28-.11-.8-.18-1.64-.22-2.51v-2.77c.71-16 12.82-35 27.05-42.37.43-.23.85-.44 1.28-.63.21-.11.43-.2.63-.29l.63-.26a23.87 23.87 0 012.35-.85c8.14-2.48 14.69.16 17.74 6.71a23.38 23.38 0 011.82 10.9 44.24 44.24 0 01-3.17 14.05zM123.3 150.64l-.8 17.94c11.08-6.17 21.53-15.48 30.42-26.5l-8.71-9.64a77.32 77.32 0 01-20.91 18.2z" fill="#3980c0"/><path d="M123.3 150.64l-.8 17.94c11.08-6.17 21.53-15.48 30.42-26.5l-8.71-9.64a77.32 77.32 0 01-20.91 18.2z" fill="#fff" opacity=".8"/><path fill="#3980c0" d="M112.18 143.51l-.8 17.94 11.12 7.13.8-17.94-11.12-7.13z"/><path fill="#fff" opacity=".65" d="M112.18 143.51l-.8 17.94 11.12 7.13.8-17.94-11.12-7.13z"/><path fill="#3980c0" d="M112.18 143.51l-.8 17.94 11.12 7.13.8-17.94-11.12-7.13z"/><path opacity=".05" d="M112.18 143.51l-.8 17.94 11.12 7.13.8-17.94-11.12-7.13z"/><path d="M123.3 150.64a77.32 77.32 0 0020.91-18.2l-11.13-7.13a77.43 77.43 0 01-20.9 18.2z" fill="#3980c0"/><path d="M123.3 150.64a77.32 77.32 0 0020.91-18.2l-11.13-7.13a77.43 77.43 0 01-20.9 18.2z" fill="#fff" opacity=".6"/><path d="M99.09 155.88l-10 19.36c8.31 2.09 18.4.72 29.44-4.59l.8-18c-7.55 3.57-14.47 4.55-20.24 3.23z" fill="#3980c0"/><path d="M99.09 155.88l-10 19.36c8.31 2.09 18.4.72 29.44-4.59l.8-18c-7.55 3.57-14.47 4.55-20.24 3.23z" fill="#fff" opacity=".65"/><path fill="#3980c0" d="M87.96 148.75l-10 19.36 11.13 7.13 10-19.36-11.13-7.13z"/><path fill="#fff" opacity=".55" d="M87.96 148.75l-10 19.36 11.13 7.13 10-19.36-11.13-7.13z"/><path fill="#3980c0" d="M87.96 148.75l-10 19.36 11.13 7.13 10-19.36-11.13-7.13z"/><path opacity=".1" d="M87.96 148.75l-10 19.36 11.13 7.13 10-19.36-11.13-7.13z"/><path d="M108.2 145.57c-7.55 3.52-14.47 4.5-20.24 3.18l11.13 7.13c5.77 1.32 12.69.34 20.24-3.18z" fill="#3980c0"/><path d="M108.2 145.57c-7.55 3.52-14.47 4.5-20.24 3.18l11.13 7.13c5.77 1.32 12.69.34 20.24-3.18z" fill="#fff" opacity=".55"/><path d="M84.17 141.82l-15.42 13.43c3.19 9.48 9.24 16 17.25 19l10-19.34c-5.44-2.18-9.55-6.68-11.83-13.09z" fill="#3980c0"/><path d="M84.17 141.82l-15.42 13.43c3.19 9.48 9.24 16 17.25 19l10-19.34c-5.44-2.18-9.55-6.68-11.83-13.09z" fill="#fff" opacity=".55"/><path d="M68.75 155.25l-11.13-7.13c2.48 7.35 6.68 12.88 12.18 16.46l11.12 7.13c-5.5-3.54-9.7-9.11-12.17-16.46z" fill="#3980c0"/><path d="M68.75 155.25l-11.13-7.13c2.48 7.35 6.68 12.88 12.18 16.46l11.12 7.13c-5.5-3.54-9.7-9.11-12.17-16.46z" fill="#fff" opacity=".45"/><path fill="#3980c0" d="M73.04 134.69l-15.42 13.43 11.13 7.13 15.42-13.43-11.13-7.13z"/><path fill="#fff" opacity=".55" d="M73.04 134.69l-15.42 13.43 11.13 7.13 15.42-13.43-11.13-7.13z"/><path fill="#3980c0" d="M73.04 134.69l-15.42 13.43 11.13 7.13 15.42-13.43-11.13-7.13z"/><path opacity=".1" d="M73.04 134.69l-15.42 13.43 11.13 7.13 15.42-13.43-11.13-7.13z"/><path d="M147.54 128.14l8.7 9.63A131.83 131.83 0 00176 99.51l-14.92 2.33a95.35 95.35 0 01-13.54 26.3z" fill="#3980c0"/><path d="M147.54 128.14l8.7 9.63A131.83 131.83 0 00176 99.51l-14.92 2.33a95.35 95.35 0 01-13.54 26.3z" fill="#fff" opacity=".85"/><path fill="#3980c0" d="M164.92 92.38L150 94.71l11.12 7.13 14.92-2.33-11.12-7.13z"/><path fill="#fff" opacity=".75" d="M164.92 92.38L150 94.71l11.12 7.13 14.92-2.33-11.12-7.13z"/><path fill="#3980c0" d="M164.92 92.38L150 94.71l11.12 7.13 14.92-2.33-11.12-7.13z"/><path d="M150 94.71A94.81 94.81 0 01136.41 121l11.13 7.13a95.35 95.35 0 0013.58-26.3z" fill="#3980c0"/><path d="M150 94.71A94.81 94.81 0 01136.41 121l11.13 7.13a95.35 95.35 0 0013.58-26.3z" fill="#fff" opacity=".65"/><path fill="#3980c0" d="M147.54 128.14l-11.13-7.13 8.7 9.63 11.13 7.13-8.7-9.63z"/><path fill="#fff" opacity=".75" d="M147.54 128.14l-11.13-7.13 8.7 9.63 11.13 7.13-8.7-9.63z"/><path fill="#3980c0" d="M147.54 128.14l-11.13-7.13 8.7 9.63 11.13 7.13-8.7-9.63zm32.92-52.39a89.46 89.46 0 01-3 18.87L162.54 97a64.21 64.21 0 002-13 45.23 45.23 0 00-.3-7.75l12.85-23c.32.75.6 1.55.88 2.35 0 0 .63 1.93 1 3.63a58.64 58.64 0 011.49 16.52z"/><path d="M180.46 75.75a89.46 89.46 0 01-3 18.87L162.54 97a64.21 64.21 0 002-13 45.23 45.23 0 00-.3-7.75l12.85-23c.32.75.6 1.55.88 2.35 0 0 .63 1.93 1 3.63a58.64 58.64 0 011.49 16.52z" fill="#fff" opacity=".9"/><path fill="#3980c0" d="M165.99 46.08l-12.85 23.04 11.13 7.13 12.85-23.04-11.13-7.13z"/><path fill="#fff" opacity=".85" d="M165.99 46.08l-12.85 23.04 11.13 7.13 12.85-23.04-11.13-7.13z"/><path fill="#3980c0" d="M165.99 46.08l-12.85 23.04 11.13 7.13 12.85-23.04-11.13-7.13z"/><path d="M164.27 76.25l-11.13-7.13a45.19 45.19 0 01.31 7.75 64.25 64.25 0 01-2 12.95L162.54 97a64.21 64.21 0 002-13 45.23 45.23 0 00-.27-7.75z" fill="#3980c0"/><path d="M164.64 76.49l-11.12-7.13a44.24 44.24 0 01.3 7.75 63.52 63.52 0 01-2 13l11.12 7.13a64.25 64.25 0 002-13 44.2 44.2 0 00-.3-7.75z" fill="#fff" opacity=".7"/><path d="M175.59 42.38c-.1-.06-5.31-3.73-5.31-3.73a1.54 1.54 0 00-.31-.17l-10.38-4.29a2.31 2.31 0 00-2.83 1l-41.92 75.16-16.67-9.16a2.11 2.11 0 00-2.79.75l-8.18 12.94a1.9 1.9 0 00.6 2.61s4.48 3.21 5.31 3.73a.41.41 0 00.11.07l29 16a2 2 0 002.72-.78l51.19-91.77a1.73 1.73 0 00-.54-2.36z" fill="#263238"/><path d="M175.59 42.38c-.1-.06-5.31-3.73-5.31-3.73a1.54 1.54 0 00-.31-.17l-10.38-4.29a2.28 2.28 0 00-1.94.13l18.11 11.12.39-.71a1.73 1.73 0 00-.56-2.35z" fill="#455a64"/><path d="M175.28 42.22l-10.39-4.29a2.31 2.31 0 00-2.82 1l-41.93 75.17-16.66-9.16a2.1 2.1 0 00-2.79.74l-8.18 13a1.9 1.9 0 00.71 2.68l29 16a2 2 0 002.72-.78l51.19-91.77a1.73 1.73 0 00-.85-2.59z" fill="#37474f"/><path d="M114.84 110.34l5.29 3.75-16.65-9.17a2.06 2.06 0 00-1.55-.18l-5.3-3.74a2 2 0 011.54.18z" fill="#455a64"/><path d="M82.18 126.81a64.21 64.21 0 012-13l-14.88 2.38a89.43 89.43 0 00-3 18.87 59 59 0 001.43 16.56l15.4-13.41a43.13 43.13 0 01-.95-11.4z" fill="#3980c0"/><path d="M82.18 126.81a64.21 64.21 0 012-13l-14.88 2.38a89.43 89.43 0 00-3 18.87 59 59 0 001.43 16.56l15.4-13.41a43.13 43.13 0 01-.95-11.4z" fill="#3980c0"/><path fill="#3980c0" d="M73.08 106.73l-14.91 2.33 11.13 7.13 14.91-2.33-11.13-7.13z"/><path opacity=".15" d="M73.08 106.73l-14.91 2.33 11.13 7.13 14.91-2.33-11.13-7.13z"/><path d="M69.3 116.19l-11.13-7.13a90.73 90.73 0 00-3 18.87 59 59 0 001.44 16.56l11.12 7.13a59 59 0 01-1.43-16.56 89.43 89.43 0 013-18.87z" fill="#3980c0"/><path d="M69.3 116.19l-11.13-7.13a90.73 90.73 0 00-3 18.87 59 59 0 001.44 16.56l11.12 7.13a59 59 0 01-1.43-16.56 89.43 89.43 0 013-18.87z" fill="#fff" opacity=".3"/><path d="M147.65 54.94l10-19.4c-8.64-2.13-18.89-.42-29.46 4.65l-.79 17.9c7.26-3.37 14.26-4.49 20.25-3.15z" fill="#3980c0"/><path d="M147.65 54.94l10-19.4c-8.64-2.13-18.89-.42-29.46 4.65l-.79 17.9c7.26-3.37 14.26-4.49 20.25-3.15z" opacity=".3"/><path fill="#3980c0" d="M117.09 33.06l-.8 17.9 11.13 7.13.8-17.9-11.13-7.13z"/><path opacity=".42" d="M117.09 33.06l-.8 17.9 11.13 7.13.8-17.9-11.13-7.13z"/><path d="M128.21 40.19c10.57-5.07 20.82-6.78 29.46-4.65l-11.12-7.13c-8.64-2.13-18.9-.42-29.46 4.65z" fill="#3980c0"/><path d="M128.21 40.19c10.57-5.07 20.82-6.78 29.46-4.65l-11.12-7.13c-8.64-2.13-18.9-.42-29.46 4.65z" opacity=".2"/><path d="M123.45 60.17l.79-17.94c-11.07 6.17-21.52 15.47-30.41 26.5l8.71 9.63a77.45 77.45 0 0120.91-18.19z" fill="#3980c0"/><path d="M123.45 60.17l.79-17.94c-11.07 6.17-21.52 15.47-30.41 26.5l8.71 9.63a77.45 77.45 0 0120.91-18.19z" opacity=".2"/><path d="M113.12 35.1C102 41.27 91.59 50.57 82.7 61.6l11.13 7.13c8.89-11 19.34-20.33 30.41-26.5z" fill="#3980c0"/><path d="M113.12 35.1C102 41.27 91.59 50.57 82.7 61.6l11.13 7.13c8.89-11 19.34-20.33 30.41-26.5z" opacity=".1"/><path fill="#3980c0" d="M93.83 68.73L82.7 61.6l8.71 9.63 11.13 7.13-8.71-9.63z"/><path opacity=".35" d="M93.83 68.73L82.7 61.6l8.71 9.63 11.13 7.13-8.71-9.63z"/><path d="M99.21 82.66L90.51 73a132.11 132.11 0 00-19.81 38.3l14.93-2.3a95.27 95.27 0 0113.58-26.34z" fill="#3980c0"/><path d="M99.21 82.66L90.51 73a132.11 132.11 0 00-19.81 38.3l14.93-2.3a95.27 95.27 0 0113.58-26.34z" opacity=".1"/><path d="M70.7 111.3A132.11 132.11 0 0190.51 73l-11.13-7.09a131.83 131.83 0 00-19.8 38.26z" fill="#3980c0"/><path d="M141.3 200.94l-.08-.05L122 188.28l-.12-.06c-9-5.23-21.52-4.53-35.37 3.34-27.81 15.8-50.54 54.55-50.76 86.54-.11 16 5.4 27.2 14.39 32.53l.08.05 19.26 12.61.09.06c9 5.24 21.54 4.54 35.4-3.33 27.81-15.81 50.54-54.55 50.76-86.54.07-15.96-5.44-27.21-14.43-32.54z" fill="#37474f"/><path d="M68.77 322.88l-18.6-12.21-.09-.06c-9-5.33-14.49-16.59-14.38-32.51.1-14.27 4.68-29.87 12.18-44.18l19.26 12.61c-7.51 14.3-12.08 29.9-12.17 44.17-.12 15.61 5.15 26.71 13.8 32.18z" fill="#263238"/><ellipse cx="105.32" cy="262.09" rx="70.94" ry="40.96" transform="rotate(-59.61 105.322 262.081)" fill="#455a64"/><path d="M82.55 316.54c-15.88-.11-17.47-18.06-17.42-25.77.19-28.21 21.08-63.83 45.62-77.77 6.24-3.54 12.24-5.4 17.35-5.37 15.88.11 17.47 18.06 17.42 25.77-.2 28.21-21.09 63.83-45.62 77.77-6.24 3.55-12.24 5.4-17.35 5.37z" fill="#fafafa"/><path d="M108.14 267.53a1.81 1.81 0 01-.56-.12 1.73 1.73 0 01-1.07-1.7l2.26-40.71a1.73 1.73 0 013.45.19l-2 35.69 20.34-23.33a1.73 1.73 0 112.6 2.27L109.54 267a1.76 1.76 0 01-1.4.53z" fill="#37474f"/><path d="M96.75 297.06a.67.67 0 01-.24 0 .72.72 0 01-.44-.93l11.34-31.67a.72.72 0 111.36.49l-11.33 31.63a.73.73 0 01-.69.48z" fill="#3980c0"/><path d="M108.14 257.64c3.27-1.86 5.9-.32 5.88 3.44a13.07 13.07 0 01-6 10.19c-3.28 1.86-5.91.31-5.88-3.45a13 13 0 016-10.18z" fill="#3980c0"/><path d="M108.14 257.64c3.27-1.86 5.9-.32 5.88 3.44a13.07 13.07 0 01-6 10.19c-3.28 1.86-5.91.31-5.88-3.45a13 13 0 016-10.18z" opacity=".2"/><path d="M261.22 360.91l-6.36 3.67a2.56 2.56 0 01-2.32 0l-2-1.17a2 2 0 01-.88-2l21.16-100.15a3.38 3.38 0 011.43-2l6.37-3.68a2.61 2.61 0 012.31 0l2 1.18a1.93 1.93 0 01.88 2l-21.15 100.17a3.43 3.43 0 01-1.44 1.98z" fill="#455a64"/><path d="M261.22 360.91l-6.36 3.67c-.64.37-1 .09-.89-.64l21.16-100.15a3.39 3.39 0 011.43-2l6.37-3.68c.64-.37 1-.08.88.64l-21.15 100.18a3.43 3.43 0 01-1.44 1.98z" fill="#263238"/><path fill="#37474f" d="M257.83 354.37l1.88-8.94 4.34-2.5 40.21 23.21 1.88 11.12-4.33 2.5-43.98-25.39z"/><path fill="#455a64" d="M301.81 379.76l-43.98-25.39 1.88-8.94 40.21 23.21 1.89 11.12z"/><path d="M309 388.48l-6.37 3.67a2.54 2.54 0 01-2.31 0l-2-1.17a3.22 3.22 0 01-1.38-2L275.63 263.8a2.06 2.06 0 01.93-2l6.37-3.68a2.56 2.56 0 012.32 0l2 1.17a3.21 3.21 0 011.38 2l21.26 125.19a2.05 2.05 0 01-.89 2z" fill="#37474f"/><path d="M275.63 263.8l.8 4.74L296.89 389a3.21 3.21 0 001.37 2l2 1.18a2.61 2.61 0 002.31 0l6.36-3.68a2.08 2.08 0 00.94-2l-21.14-124.77-.07-.43a3.29 3.29 0 00-1.38-2l-2-1.17a2.56 2.56 0 00-2.32 0l-6.37 3.67a2.08 2.08 0 00-.96 2z" fill="#37474f"/><path d="M288.65 261.3l21.26 125.19a2.05 2.05 0 01-.93 2l-6.37 3.67a.87.87 0 01-1.38-.65L280 266.31a2.09 2.09 0 01.93-2l6.37-3.67a.87.87 0 011.35.66z" fill="#455a64"/><path d="M269.76 266.16l3.34 1.93a5.06 5.06 0 003.33.45 4.28 4.28 0 001.29-.45l11-6.36-.07-.43a3.29 3.29 0 00-1.38-2l-2-1.17a2.56 2.56 0 00-2.32 0c.16-.72.64-1 0-1.34l-2-1.16a2.5 2.5 0 00-2.32 0l-6.37 3.67a3.38 3.38 0 00-1.43 2z" opacity=".15"/><path d="M265.9 258.36a1.63 1.63 0 011-1.36l12.74-7.35a5.11 5.11 0 014.63 0l6.24 3.6a1.64 1.64 0 011 1.32v2.9a1.62 1.62 0 01-1 1.34l-12.74 7.35a5.11 5.11 0 01-4.63 0l-6.24-3.6a1.6 1.6 0 01-1-1.32c-.01-.49 0-2.41 0-2.88z" fill="#37474f"/><path d="M265.9 258.36a1.63 1.63 0 011-1.36l8.56-4.93v14.65a4.74 4.74 0 01-2.32-.56l-6.24-3.6a1.6 1.6 0 01-1-1.32c-.01-.49 0-2.41 0-2.88z" fill="#263238"/><path d="M277.72 263.28l12.74-7.36c1.28-.74 1.28-1.93 0-2.67l-6.24-3.6a5.11 5.11 0 00-4.63 0L266.85 257c-1.27.74-1.27 1.94 0 2.67l6.24 3.61a5.17 5.17 0 004.63 0z" fill="#455a64"/><path d="M285.71 242.86l-4.3-2.53c-1.23-.63-2.88-.45-4.66.7a14.69 14.69 0 00-6.08 11.83c.1 2.11.91 3.56 2.14 4.2l4.31 2.53c1.23.63 2.88.44 4.66-.7a14.71 14.71 0 006.09-11.83c-.12-2.06-.93-3.56-2.16-4.2z" fill="#455a64"/><path d="M277 259.54l-4.22-2.49c-1.23-.64-2-2.09-2.14-4.19a13.2 13.2 0 011.29-5.94l4.3 2.53a13.2 13.2 0 00-1.29 5.94c.06 2.05.88 3.49 2.06 4.15z" fill="#263238"/><path d="M281.77 258.89a14.71 14.71 0 006.09-11.83c-.21-4.24-3.27-5.81-6.83-3.51a14.7 14.7 0 00-6.09 11.83c.21 4.23 3.26 5.81 6.83 3.51z" fill="#37474f"/><path d="M278.78 258.59c-2.1.11-2.44-2.26-2.49-3.28a13.44 13.44 0 015.47-10.63 4.91 4.91 0 012.25-.84c2.11-.1 2.45 2.27 2.5 3.29a13.44 13.44 0 01-5.51 10.63 4.76 4.76 0 01-2.26.83z" fill="#263238"/><path d="M281.76 244.68a5 5 0 012-.8 5.21 5.21 0 01.58 2.24 13.47 13.47 0 01-5.47 10.63 5 5 0 01-2 .8 5.07 5.07 0 01-.58-2.24 13.44 13.44 0 015.47-10.63z" fill="#3980c0"/><path d="M161.35 418.56l-6.35 3.68a2.54 2.54 0 01-2.31 0l-2-1.17a2 2 0 01-.88-2L170.92 319a3.38 3.38 0 011.43-2l6.37-3.68a2.54 2.54 0 012.31 0l2 1.17a2 2 0 01.88 2l-21.12 100.1a3.42 3.42 0 01-1.44 1.97z" fill="#455a64"/><path d="M161.35 418.56l-6.35 3.68c-.63.37-1 .08-.88-.64l21.16-100.15a3.39 3.39 0 011.43-2l6.37-3.68c.64-.37 1-.08.88.64l-21.17 100.18a3.42 3.42 0 01-1.44 1.97z" fill="#263238"/><path fill="#37474f" d="M157.84 412.18l1.89-8.94 4.34-2.5 40.2 23.21 1.89 11.12-4.34 2.5-43.98-25.39z"/><path fill="#455a64" d="M201.82 437.57l-43.98-25.39 1.89-8.94 40.21 23.21 1.88 11.12z"/><path d="M209.11 446.14l-6.37 3.67a2.54 2.54 0 01-2.31 0l-2-1.17a3.22 3.22 0 01-1.38-2l-21.26-125.2a2 2 0 01.93-2l6.37-3.68a2.56 2.56 0 012.32 0l2 1.17a3.21 3.21 0 011.38 2L210 444.15a2.07 2.07 0 01-.89 1.99z" fill="#37474f"/><path d="M175.76 321.46l.8 4.73L197 446.65a3.21 3.21 0 001.37 2l2 1.18a2.63 2.63 0 002.32 0l6.36-3.68a2.08 2.08 0 00.94-2l-21.13-124.76-.07-.43a3.26 3.26 0 00-1.38-2l-2-1.17a2.56 2.56 0 00-2.32 0l-6.37 3.67a2.08 2.08 0 00-.96 2z" fill="#37474f"/><path d="M188.78 319L210 444.15a2.07 2.07 0 01-.93 2l-6.37 3.67a.87.87 0 01-1.38-.65L180.1 324a2.07 2.07 0 01.93-2l6.37-3.67a.87.87 0 011.38.67z" fill="#455a64"/><path d="M169.89 323.82l3.34 1.93a5 5 0 003.33.44 4 4 0 001.29-.44l11-6.36-.07-.43a3.26 3.26 0 00-1.38-2l-2-1.17a2.56 2.56 0 00-2.32 0c.16-.72.64-1 0-1.34l-2-1.17a2.56 2.56 0 00-2.32 0l-6.41 3.72a3.35 3.35 0 00-1.43 2z" opacity=".15"/><path d="M166 316a1.63 1.63 0 01.95-1.36l12.74-7.35a5.11 5.11 0 014.63 0l6.24 3.6a1.64 1.64 0 011 1.32v2.9a1.62 1.62 0 01-1 1.34l-12.74 7.35a5.11 5.11 0 01-4.63 0l-6.24-3.6a1.6 1.6 0 01-.95-1.32V316z" fill="#37474f"/><path d="M166 316a1.63 1.63 0 01.95-1.36l8.56-4.94v14.66a4.74 4.74 0 01-2.32-.56l-6.24-3.6a1.6 1.6 0 01-.95-1.32V316z" fill="#263238"/><path d="M177.85 320.93l12.74-7.35c1.27-.74 1.27-1.93 0-2.67l-6.24-3.6a5.11 5.11 0 00-4.63 0L167 314.66c-1.27.74-1.27 1.94 0 2.67l6.24 3.6a5.11 5.11 0 004.61 0z" fill="#455a64"/><path d="M185.84 300.52l-4.3-2.53c-1.23-.62-2.88-.44-4.66.71a14.69 14.69 0 00-6.08 11.82c.1 2.12.91 3.57 2.14 4.2l4.3 2.53c1.23.63 2.88.44 4.66-.7a14.68 14.68 0 006.1-11.83c-.12-2.11-.93-3.56-2.16-4.2z" fill="#455a64"/><path d="M177.14 317.19l-4.22-2.48c-1.23-.64-2-2.09-2.14-4.19a13.32 13.32 0 011.28-5.94l4.31 2.53a13.2 13.2 0 00-1.29 5.94c.09 2.05.92 3.48 2.06 4.14z" fill="#263238"/><path d="M181.9 316.55a14.68 14.68 0 006.1-11.83c-.2-4.24-3.26-5.81-6.82-3.51a14.7 14.7 0 00-6.11 11.79c.21 4.27 3.26 5.85 6.83 3.55z" fill="#37474f"/><path d="M178.91 316.25c-2.1.11-2.44-2.26-2.49-3.28a13.43 13.43 0 015.47-10.63 4.91 4.91 0 012.25-.84c2.11-.1 2.45 2.26 2.5 3.29a13.44 13.44 0 01-5.47 10.63 4.76 4.76 0 01-2.26.83z" fill="#263238"/><path d="M181.89 302.34a5 5 0 012-.8 5.21 5.21 0 01.58 2.24 13.47 13.47 0 01-5.47 10.63 5 5 0 01-2 .8 4.93 4.93 0 01-.58-2.24 13.43 13.43 0 015.47-10.63zm-10.7 35.35l134.58-77.7-2.19-1.26L169 336.43l2.19 1.26z" fill="#3980c0"/><path fill="#fff" opacity=".4" d="M171.19 337.69l134.58-77.7-2.19-1.26L169 336.43l2.19 1.26z"/><path fill="#3980c0" d="M171.19 337.69l6.54 38.86 134.58-77.7-6.54-38.86-134.58 77.7z"/><path fill="#37474f" d="M169 336.43l6.54 38.86 2.19 1.26-6.54-38.86-2.19-1.26z"/><path fill="#3980c0" d="M170.37 344.53l3.61 21.49 2.19 1.26-3.61-21.49-2.19-1.26z"/><path opacity=".2" d="M170.37 344.53l3.61 21.49 2.19 1.26-3.61-21.49"/><path fill="#37474f" d="M183.54 330.56l-5.81 45.99-6.54-38.86 12.35-7.13zm116.42-24.58l5.81-45.99 6.54 38.86-12.35 7.13zm-99.64 57.53l5.82-46-13.37 7.71-5.81 45.99 13.36-7.7zm22.6-13.05l5.82-45.99-13.37 7.71-5.81 45.99 13.36-7.71zm22.6-13.05l5.82-45.99-13.37 7.71-5.81 45.99 13.36-7.71zm22.6-13.04l5.82-46-13.37 7.71-5.81 45.99 13.36-7.7zm22.61-13.05l5.81-45.99-13.37 7.71-5.81 45.99 13.37-7.71z"/><path fill="#455a64" d="M192.77 325.22l-2.19-1.26 13.37-7.71 2.19 1.26-13.37 7.71zm22.6-13.04l-2.19-1.27 13.37-7.71 2.19 1.27-13.37 7.71zm22.6-13.05l-2.19-1.26 13.37-7.71 2.19 1.26-13.37 7.71zm22.6-13.05l-2.19-1.26 13.37-7.71 2.19 1.26-13.37 7.71zm22.6-13.04l-2.19-1.27 13.37-7.71 2.19 1.27-13.37 7.71zm-111.98 64.65l-2.19-1.26 12.35-7.13 2.19 1.26-12.35 7.13z"/><path fill="#3980c0" d="M172.56 345.79l3.61 21.49 134.58-77.7-3.61-21.49-134.58 77.7z"/><path d="M194.26 351.84a.3.3 0 01-.29 0 .34.34 0 01-.16-.26l-1.75-11.06a.76.76 0 01.05-.39.61.61 0 01.25-.29l1.84-1.06a.26.26 0 01.28 0 .33.33 0 01.17.26l1.75 11.06a.69.69 0 01-.06.39.6.6 0 01-.25.29zm11.25-6.5a.46.46 0 01-.41.07.88.88 0 01-.23-.13l-4.13-4 .91 5.79a.65.65 0 01-.06.38.55.55 0 01-.24.29l-1.84 1.07a.28.28 0 01-.28 0 .33.33 0 01-.17-.26l-1.75-11.06a.69.69 0 01.06-.39.64.64 0 01.24-.29l1.46-.84a.5.5 0 01.41-.07.73.73 0 01.23.13l4.14 4-.92-5.78a.67.67 0 01.06-.39.56.56 0 01.25-.29l1.83-1.06a.28.28 0 01.29 0 .34.34 0 01.16.26l1.75 11.06a.68.68 0 01-.06.39.59.59 0 01-.24.29zm10.66-19.23a5.78 5.78 0 011.65-.68 2.31 2.31 0 011.34.05 2 2 0 011 .81 4.06 4.06 0 01.55 1.58 6.24 6.24 0 010 1.93 5.21 5.21 0 01-.58 1.69A6.09 6.09 0 01219 333a7.62 7.62 0 01-1.57 1.19l-1.79 1 .55 3.5a.69.69 0 01-.06.39.64.64 0 01-.24.29l-1.84 1.06a.28.28 0 01-.29 0 .31.31 0 01-.16-.26l-1.75-11.06a.69.69 0 01.06-.39.64.64 0 01.24-.29zm-.95 6.39l1.73-1a2.59 2.59 0 00.92-.88 1.78 1.78 0 00.22-1.26c-.07-.48-.26-.75-.55-.81a1.44 1.44 0 00-1 .24l-1.73 1zm11.05-12.22a6.24 6.24 0 011.7-.72 2.57 2.57 0 011.35 0 1.87 1.87 0 011 .77 4.12 4.12 0 01.55 1.58 5.75 5.75 0 01-.1 2.39 5.38 5.38 0 01-1 2l2.38 3.07a.38.38 0 01.08.17.58.58 0 01-.05.31.54.54 0 01-.2.24l-1.91 1.1c-.19.11-.33.13-.42.08a.8.8 0 01-.24-.2l-2.14-2.77-1.29.75.58 3.66a.67.67 0 01-.06.39.59.59 0 01-.24.29l-1.84 1.06a.28.28 0 01-.29 0 .37.37 0 01-.16-.26l-1.75-11.06a.67.67 0 01.06-.39.6.6 0 01.25-.29zm-.76 6.1l1.58-.92a2.6 2.6 0 00.93-.83 1.6 1.6 0 00.23-1.22c-.07-.48-.25-.74-.54-.77a1.74 1.74 0 00-1 .29l-1.58.91zm7.41-5.07a7.49 7.49 0 01.06-2 7.28 7.28 0 01.62-2 7.53 7.53 0 011.19-1.77 7.13 7.13 0 011.77-1.42 4.9 4.9 0 011.88-.68 2.67 2.67 0 011.51.21 2.55 2.55 0 011.09 1 4.7 4.7 0 01.63 1.6q.14.72.27 1.53c.08.54.16 1 .21 1.52a7.55 7.55 0 01-.06 2 7.28 7.28 0 01-.62 2 7.39 7.39 0 01-1.19 1.78 7.74 7.74 0 01-1.77 1.41 5.06 5.06 0 01-1.88.69 2.76 2.76 0 01-1.51-.21 2.62 2.62 0 01-1.08-1 4.56 4.56 0 01-.63-1.61c-.1-.46-.18-.95-.27-1.49s-.14-1.05-.22-1.56zm6.62-.59c0-.21 0-.44-.08-.7s-.06-.51-.1-.78-.09-.51-.14-.75l-.13-.64a2.92 2.92 0 00-.27-.71 1.29 1.29 0 00-.44-.43 1 1 0 00-.6-.1 1.89 1.89 0 00-.79.28 2.86 2.86 0 00-.73.59 3 3 0 00-.47.73 2.87 2.87 0 00-.24.82 3.62 3.62 0 000 .87 6 6 0 00.07.68c0 .25.07.5.11.77s.09.52.13.76.09.47.15.67a1.69 1.69 0 00.7 1.14 1.36 1.36 0 001.39-.18 2.7 2.7 0 001.2-1.31 3.67 3.67 0 00.24-1.71zm8.19-10.03a2.58 2.58 0 00-.77.63 2.61 2.61 0 00-.46.74 2.48 2.48 0 00-.2.8 4.72 4.72 0 000 .84 4.34 4.34 0 00.06.63l.12.82c0 .28.09.55.15.81s.09.47.12.61a2.75 2.75 0 00.26.68 1.1 1.1 0 00.4.45.94.94 0 00.61.13 1.85 1.85 0 00.81-.29 3.34 3.34 0 00.67-.5 2.44 2.44 0 00.51-.65 2.54 2.54 0 00.29-.8 3 3 0 000-.95l-1.18.68a.26.26 0 01-.28 0 .32.32 0 01-.17-.26l-.29-1.81a.67.67 0 01.06-.39.66.66 0 01.25-.29l3.39-2a.28.28 0 01.29 0 .34.34 0 01.16.26l.35 2.19a6.08 6.08 0 010 2.17 7 7 0 01-.69 2 7.58 7.58 0 01-2.89 3 4.85 4.85 0 01-1.86.67 2.76 2.76 0 01-1.51-.22 2.71 2.71 0 01-1.1-1 4.7 4.7 0 01-.63-1.6c-.09-.45-.18-.95-.26-1.49s-.16-1.05-.22-1.55a7 7 0 01.05-2 7.67 7.67 0 01.63-2 7.39 7.39 0 011.2-1.79 7.08 7.08 0 011.74-1.41 5 5 0 011.82-.67 3.5 3.5 0 011.48.12 2.53 2.53 0 011 .69 2.31 2.31 0 01.53 1 .46.46 0 010 .32.5.5 0 01-.21.24l-1.86 1.07a.35.35 0 01-.36 0l-.28-.17a1.21 1.21 0 00-.62-.26 1.81 1.81 0 00-1.11.55zm10.41-8.81a6.32 6.32 0 011.69-.72 2.5 2.5 0 011.36 0 1.86 1.86 0 011 .77 3.85 3.85 0 01.54 1.58 5.33 5.33 0 01-1.12 4.38L264 311a.41.41 0 01.07.17.53.53 0 01-.05.32.42.42 0 01-.2.23l-1.9 1.1c-.19.11-.33.14-.42.08a.8.8 0 01-.24-.2l-2.14-2.77-1.29.75.58 3.66a.67.67 0 01-.06.39.59.59 0 01-.24.29l-1.84 1.06a.28.28 0 01-.29 0 .32.32 0 01-.16-.26L254 304.75a.68.68 0 01.06-.39.64.64 0 01.24-.29zm-.76 6.1l1.58-.91a2.92 2.92 0 00.93-.84 1.6 1.6 0 00.23-1.22c-.08-.48-.26-.73-.54-.77a1.7 1.7 0 00-1 .29l-1.58.92zm15.51-4.53a.3.3 0 01.29 0 .34.34 0 01.16.26l.29 1.82a.67.67 0 01-.06.39.56.56 0 01-.25.29l-6.64 3.79a.3.3 0 01-.29 0 .32.32 0 01-.16-.26l-1.75-11.06a.69.69 0 01.06-.39.64.64 0 01.24-.29l6.53-3.77a.3.3 0 01.29 0 .38.38 0 01.17.27l.28 1.81a.67.67 0 01-.06.39.64.64 0 01-.24.29l-4.32 2.49.29 1.85 4-2.31a.28.28 0 01.29 0 .34.34 0 01.16.26l.29 1.82a.69.69 0 01-.06.39.64.64 0 01-.24.29l-4 2.31.3 1.92zm4.84-13.07a4.85 4.85 0 011.7-.64 3.47 3.47 0 011.42.07 2.25 2.25 0 011 .6 1.88 1.88 0 01.51 1 .6.6 0 01-.05.32.45.45 0 01-.19.23l-1.8 1.04a.6.6 0 01-.61 0l-.16-.1a.89.89 0 00-.3-.09 1.18 1.18 0 00-.45 0 2 2 0 00-.63.26 3.48 3.48 0 00-.51.34 2.52 2.52 0 00-.41.38 1.5 1.5 0 00-.27.45.91.91 0 00-.05.49.51.51 0 00.2.36.83.83 0 00.5.05 4.55 4.55 0 00.88-.2c.36-.1.81-.24 1.34-.42a5.68 5.68 0 011.42-.29 2.18 2.18 0 011.08.17 1.59 1.59 0 01.73.7 3.57 3.57 0 01.41 1.28 4.31 4.31 0 01-.07 1.75 5.78 5.78 0 01-.72 1.69 7.53 7.53 0 01-1.26 1.54 8.51 8.51 0 01-1.69 1.25 5.51 5.51 0 01-1.78.7 3.31 3.31 0 01-1.48 0 2.26 2.26 0 01-1.07-.63 2.13 2.13 0 01-.54-1.09.61.61 0 01.23-.54L277 300a.67.67 0 01.32-.12.59.59 0 01.25.05l.2.12a1.27 1.27 0 00.35.15 1.51 1.51 0 00.52 0 2.11 2.11 0 00.73-.28 5.25 5.25 0 001.21-.92 1.17 1.17 0 00.39-1 .37.37 0 00-.26-.32 1.43 1.43 0 00-.59 0 6.62 6.62 0 00-1 .26l-1.39.43a2.85 2.85 0 01-2.31 0 2.68 2.68 0 01-1-2 4.41 4.41 0 010-1.57 5.9 5.9 0 01.61-1.63 6.8 6.8 0 011.12-1.54 7.32 7.32 0 011.58-1.25zm10.15-5.86a5 5 0 011.69-.63 3.36 3.36 0 011.43.11 2.25 2.25 0 011 .6 1.79 1.79 0 01.5 1 .52.52 0 010 .32.49.49 0 01-.18.23l-1.84 1.06a.64.64 0 01-.32.11.74.74 0 01-.28-.06l-.16-.09a.76.76 0 00-.3-.1 1.23 1.23 0 00-.46 0 2.15 2.15 0 00-.63.26 5.5 5.5 0 00-.5.34 2.52 2.52 0 00-.41.38 1.5 1.5 0 00-.27.45.94.94 0 00-.05.5.47.47 0 00.2.35.83.83 0 00.5.05 5.18 5.18 0 00.87-.19l1.35-.42a6.14 6.14 0 011.42-.3 2.14 2.14 0 011.07.17 1.66 1.66 0 01.74.7 3.57 3.57 0 01.41 1.28 4.48 4.48 0 01-.07 1.75 6.37 6.37 0 01-.72 1.69 7.88 7.88 0 01-1.26 1.54 9 9 0 01-1.69 1.26 5.66 5.66 0 01-1.79.69 3.32 3.32 0 01-1.48 0 2.33 2.33 0 01-1.07-.62 2.16 2.16 0 01-.54-1.1.58.58 0 01.05-.31.45.45 0 01.19-.23l1.83-1.06a.71.71 0 01.32-.12.56.56 0 01.25.05 1.53 1.53 0 01.21.13 1.25 1.25 0 00.87.15 2.39 2.39 0 00.73-.29 5.48 5.48 0 001.21-.92 1.12 1.12 0 00.38-1 .37.37 0 00-.25-.33 1.48 1.48 0 00-.6 0 8.09 8.09 0 00-1 .26l-1.39.43a2.85 2.85 0 01-2.31 0 2.63 2.63 0 01-1-2 4.35 4.35 0 01.05-1.56 5.92 5.92 0 01.6-1.64 7.42 7.42 0 011.13-1.54 7.09 7.09 0 011.57-1.35z" fill="#fafafa"/><path d="M454.44 249.41a5.07 5.07 0 011.39-.76 12.5 12.5 0 012.71-.9 4.17 4.17 0 012.78.4c1.25.74 1.81 2.23 2.24 3.62.64 2.07 1.2 4.16 2 6.17a32 32 0 005 7.85 13.89 13.89 0 011.65 11.69 5.93 5.93 0 01-4.56 4.35l-3.13-7q-3.24-7.24-6.47-14.5-1.24-2.81-2.5-5.61c-.36-.81-.72-1.63-1.09-2.44-.45-1-1.19-1.79-.15-2.75z" fill="#37474f"/><path d="M453.8 248.22l.21-.05c1.78-.48 3.63-1.26 5.35-.19a6 6 0 012.31 3 21.79 21.79 0 01.94 3.74 22.57 22.57 0 001 3.41 13.88 13.88 0 001.71 2.86c.94 1.43 3.48 4.34 4.3 5.85a13.86 13.86 0 011.35 3.88 13.1 13.1 0 01.23 4.5c-.35 2.32-1.69 5.56-3.74 6.73a4.26 4.26 0 01-6.32-2.14c-.37-.89-.74-1.78-1.06-2.7a24.55 24.55 0 00-2.44-5 29.86 29.86 0 00-4.57-5.41c-.19-.17-.38-.37-.57-.52-2.19-1.7-4.47-3.23-4.62-4.18-.12-.79.93-8.76-.65-10.82a1.23 1.23 0 01-.17-.86c.08-.43.09-.37.58-.51l2.16-.58z" fill="#455a64"/><path d="M364.33 180.65c-2.35 13.39-3.13 17.08-5.12 25a371 371 0 00-6.47 41.37c-.34 3.51 3 11.95 4.41 15.16 8.42 18.72 22.25 48.6 22.25 48.6a16.31 16.31 0 011.46 8.08 43.42 43.42 0 01-2.92 12.1 34.13 34.13 0 01-1.74 4c-1.52 3.86.92 4.4 4.66 2.51 3.94-2 6.29-6.4 7.24-9.55 1.41-4.7 4.2-12.13 3.95-14.47l-.09-.26-.82-4.61s-3.78-14.17-6.95-30.47c-2.83-14.49-4.31-19.24-11.5-29.44l23.82-57.41z" fill="#ffa8a7"/><path d="M397.37 316.67a4.91 4.91 0 011 2.71c-.5 3.44-4.08 6-5.45 8.21s-2.67 7-3.5 9.81a9.09 9.09 0 01-.74 1.77 16.14 16.14 0 01-.75 1.5 9.48 9.48 0 01-3.26 2.44 16.37 16.37 0 01-7.93 1.77 9.4 9.4 0 01-5.82-1.77 2.44 2.44 0 01-1.08-2.24c.2-.93 1.19-1.42 2.08-1.77 1.86-.72 3.76-1.35 5.58-2.17a17.32 17.32 0 004.21-2.58 24.8 24.8 0 003.1-3.52c2-2.5 4-5 6.09-7.45.41-.47 5.9-7.25 6.47-6.71z" fill="#37474f"/><path d="M394.46 311.15c1.22 1.68 4 4.23 2.94 7.32-.95 2.68-3.52 5.31-5.21 7.48a13.64 13.64 0 00-1.75 3.87c-.86 2.23-1.34 4.6-2.21 6.83-1.09 2.74-4.09 4.51-6.84 5.27a19.71 19.71 0 01-8.41.25 4.8 4.8 0 01-3-1.3 3.3 3.3 0 01-.52-3.09 7.22 7.22 0 011.75-2.73c1.17-1.26 2.54-2.33 3.74-3.56 2.21-2.27 2.91-5 3.69-8 .54-2.1 1.34-5.12 1-6.48a7.24 7.24 0 01-.41-2.07 1.3 1.3 0 01.76-1 6.92 6.92 0 013.34-.45c1 0 2 .24 3 .29a5 5 0 004.9-5.21l-.31-.95c.9-.83 2.16 1.64 3.54 3.53z" fill="#455a64"/><path d="M451.21 255.63c-.75-3.94-2.47-4.51-2.47-4.51l-12.55.24v.28l-.22 12.7 13.14-2.34a7 7 0 002.1-6.37z" fill="#ffa8a7"/><path d="M436.54 250.81l-29.21.3s5.31-39.19 3.55-62.13l-26.08-3-20.28-6.66c-2.39 7.24-9.44 43.36-9.44 43.36-1.37 10.18-2.27 14.56-3 22.37s1.23 10.66 5.22 19.28 19.89 41.79 19.89 41.79 2 1.6 6.44-.32a11 11 0 005.72-5s-4.75-22.18-6.43-31.56-7.22-18.56-9.54-20.59l10.38-25c.66 10.16 1.33 28.45 3.49 38.89 1.43 6.93 5.54 10.94 13.12 9.73 10.56-1.68 38.46-7.94 38.46-7.94 5.63-.77 4.23-11.24-2.29-13.52z" fill="#37474f"/><path d="M407.33 251.11s.4 5.29-1.86 9.24a14.67 14.67 0 003.63-5.35c1.2-3.27 10.57-2.49 17.57-4.05zm-23.6-27.35l-.74-14a38.27 38.27 0 01-10.53-8.85 40.55 40.55 0 008.35 9.55l.92 13-8.32 25.18z" fill="#263238"/><path d="M346.69 55.65a36.13 36.13 0 01.28-5.4c.45-3.24 1.57-7.67 5.08-8.81a5.54 5.54 0 001.9-.69c.57-.46.79-1.28 1.4-1.69.95-.63 2.27 0 3.33-.35h.12a3.45 3.45 0 001.59-2.09q.94-2.27 1.87-4.53l.93-2.26c.19-.47.27-1.28.73-1.57a.93.93 0 01.87 0A2.74 2.74 0 01366 30.6a16.56 16.56 0 01-1.28 6.5 58.36 58.36 0 00-2 7.21c-.14.64-.62 2.94.5 2.77a4.39 4.39 0 002.22-1.44 5.89 5.89 0 012.15-1.28c.8-.27 2.65-.22 2.12 1.1a2.6 2.6 0 01-.49.73c-1.05 1.24-2 2.52-3.09 3.73-.53.6-1.08 1.19-1.65 1.76q-.45.45-.9.87c-.21.19-.78.53-.87.78a15.12 15.12 0 00-2.18 2.27c-1.12 1.41-1.21 3-1.42 5-.08.77-.29 3.74-.29 3.74-.51 6.89.38 28.39.64 30.24a7.64 7.64 0 00.91 2.87c2.06 3.48 14.3 24.75 14.3 24.75s8.08 14.26-4.05 19.44c-4.28-6.29-21.72-31.29-23.59-34.8a21 21 0 01-2.72-9.75c-.23-12.21 2.4-39.38 2.38-41.44z" fill="#ffa8a7"/><path d="M359.47 40.11c1.23 1.18 2.06 2.63 1.94 3.78a34.73 34.73 0 01-1.22 5.22c-.3.72-.93 1.65-2 1.37a2.19 2.19 0 01-2.23.85 2.38 2.38 0 01-2.35.87 2.2 2.2 0 01-2 .66 2.05 2.05 0 002.25-.15 2.08 2.08 0 002.27-.86 2.12 2.12 0 002.21-.69 2.08 2.08 0 002.22-1.09 16.49 16.49 0 001.39-5c.26-1.48.61-3.07-2.48-4.96z" fill="#f28f8f"/><path d="M354.41 119.41c3.86 5.24 11.33 16.05 13.26 22.08 1.62 3.39 5.92.52 7.78-6.59 2.59-9.91 10.36-14.9 6.94-15.41-4.21-.62-16.4-15-16.4-15-2.36-3-6.05-9-6.05-9l-1.22-22.2s-5.72 2.65-13.25-1.35c0 0-1.23 8.45-1.78 18.19s-.42 12.24 1.61 15.78a145.71 145.71 0 009.11 13.5z" fill="#3980c0"/><path d="M418.36 137.69l-6.1 29.75-.75 25.88c-13.83 6.47-35.55 4.24-49.45-6.94 0 0 2.1-45.55 5-55.64s8-12.16 15.14-11.93c7.55.23 17.25 1.3 17.25 1.3l13.33 2.61s5.75 11.38 5.58 14.97z" fill="#455a64"/><path d="M445.6 166.35s-1.69 13.12-3.37 19.43c-1.17 4.38-3.92 13.59-6.77 17.44-7.08 9.55-13.59 5.39-15.22 4.18-1.87-1.4-2-3.36 2.33-8.17a21.49 21.49 0 002.54-3.53c.37-.63 1.73-2.39.43-2.71a2.15 2.15 0 00-1.19.16l-2.73.91a3.67 3.67 0 01-1.84.28 1.28 1.28 0 01-1.12-1.28c.07-.55.58-.91 1-1.2q4.23-2.61 8.66-4.88c.6-.31 1.75-.58 2.09-1.17a4.51 4.51 0 00.38-1.16c.12-.8.22-1.6.32-2.41.25-2.17.48-4.35.69-6.52.3-3 .37-9 .63-12l-17.87-20.16s-4.52-5.85-4.52-21.39a25.52 25.52 0 018.88 2.15c5.14 2.4 22.2 28 24.44 30.52s3.09 4.1 2.24 11.51z" fill="#ffa8a7"/><path d="M408.92 122c1.17.23 5.68 0 8.67 1.29s5.31 2.93 9.12 8.06 16 21.35 17.85 23.84 2.49 3.68 1.86 8.6-2.95 16.3-2.95 16.3a24.06 24.06 0 01-11.85-2l.2-14.19-19.07-20.92s-6.06-7.98-3.83-20.98z" fill="#3980c0"/><path d="M397.2 88a12.93 12.93 0 11-12.31-13.52A12.94 12.94 0 01397.2 88zm8.98 9.59s-2.56 9.74-3.47 11.32a4.43 4.43 0 01-2.67 2l.47-6.91zm-1.96-14.21a4.87 4.87 0 013.95 1.6c1.64 1.84.41 7.31-2 12.61l-4 .27z" fill="#263238"/><path d="M401 97.81c.77.51 2-1 3-1.93s4.27-2.22 5.7 1.2-1.78 7.85-4.32 8.52c-4.38 1.15-4.9-1.65-4.9-1.65l-1.08 16c-5.69 6.63-20.72 6.62-14.17-.28l.39-6a27.07 27.07 0 01-5.84 0 7.75 7.75 0 01-6.17-6.59c-1-6.21-1-10.16.49-21 1.65-11.89 15.86-11.31 23.11-6.25S401 97.81 401 97.81z" fill="#ffa8a7"/><path d="M401 99.14c.4 0 2-2.41 3.06-3.26 1.42-1.18.19-12.5.19-12.5a5.45 5.45 0 00-.65-6.11 10.9 10.9 0 00-6.87-4c-4.16-.71-8.43-.48-12.29-2.5a12.09 12.09 0 00-2.33-1.1 2.82 2.82 0 00-2.47.3 2.68 2.68 0 00-1 2.14 7.75 7.75 0 00.44 2.37 9.46 9.46 0 00-3.31-.09 3.2 3.2 0 00-2.49 2 4.78 4.78 0 00.6 3.37c1.45 3.22 5.4 3.9 8.55 4.44a74.82 74.82 0 0014 .39c1.47-.13 1.72 1.31 2.33 5.23.57 3.42.88 9.23 2.24 9.32z" fill="#263238"/><path d="M404.17 84.25l4.9-2.34a2.64 2.64 0 00-3.56-1.37 2.87 2.87 0 00-1.34 3.71z" fill="#263238"/><path d="M385.65 113.7s7.15-1.09 9.7-2.3a8.09 8.09 0 003.58-3.22 11.1 11.1 0 01-2.13 3.9c-1.93 2.24-11.28 3.54-11.28 3.54z" fill="#f28f8f"/><path d="M388.22 95.43a1.45 1.45 0 001.35 1.57 1.48 1.48 0 10-1.35-1.54zm1.78-5.3l3 1.83a1.83 1.83 0 00-.6-2.46 1.69 1.69 0 00-2.4.63z" fill="#263238"/><path d="M387.86 104.34l-4.49 1.45a2.32 2.32 0 002.93 1.6 2.49 2.49 0 001.56-3.05z" fill="#f28f8f"/><path d="M375.74 90.65l2.87-2a1.68 1.68 0 00-2.39-.48 1.84 1.84 0 00-.48 2.48zm.68 3.82a1.45 1.45 0 001.35 1.53 1.48 1.48 0 10-1.35-1.54z" fill="#263238"/><path fill="#f28f8f" d="M383.72 93.46l-.87 8.52-4.39-1.73 5.26-6.79z"/></svg>