<svg width="800" height="800" viewBox="-4 0 64 64" xmlns="http://www.w3.org/2000/svg"><g stroke="#3980c0" stroke-width="2" fill="none" fill-rule="evenodd"><path d="M55 13.1C55 47 33.4 63 28 63 22.6 63 1 47 1 13.1 1 2.2 17.8 1 28 1s27 1.1 27 12.1h0z"/><path d="M28 59c-3.8-.8-22.9-14.6-22.9-45.9C5.1 9.3 10.4 5 28 5c17.6 0 22.9 4.3 22.9 8.1C50.9 44.4 31.8 58.2 28 59h0z"/><path d="M39 25.1l-2.8-2.8c-.4-.4-1-.4-1.4 0L27 30.1l-3.5-3.5c-.4-.4-1-.4-1.4 0l-2.8 2.8c-.4.4-.4 1 0 1.4l7.1 7.1c.4.4 1 .4 1.4 0l11.3-11.3c.3-.5.3-1.1-.1-1.5h0z"/></g></svg>