<svg xmlns="http://www.w3.org/2000/svg" version="1.2" width="1000" height="1000"><style>.s0{fill:#ebebeb}.s1{fill:#e0e0e0}.s2{fill:#f0f0f0}.s3{fill:#e6e6e6}.s6{fill:none;stroke:#3980c0;stroke-miterlimit:10;stroke-width:2}.s7{fill:#3980c0}.s8,.s9{opacity:.2;fill:#fff}.s9{opacity:.5}.s10{fill:#263238}.s11{fill:#fff}.s14{fill:#000;opacity:.2}.s16{opacity:.6;fill:#fff}.s19{fill:#000}.s21{fill:#ebb376}.s22{opacity:.1;fill:#000}.s24{fill:none;stroke:#263238;stroke-linecap:round;stroke-linejoin:round;stroke-width:1.4}</style><g id="Background Complete"><g id="&lt;Group&gt;"><path id="&lt;Path&gt;" class="s0" d="M645.1 802.4h17.3v.5h-17.3zm148.1-24h38.4v.5h-38.4zm-688.3 3.4h86.4v.5h-86.4zm104.2 0h12.7v.5h-12.7zm53.8 8.4h187.4v.5H262.9z"/></g><g id="&lt;Group&gt;"><g id="&lt;Group&gt;"><path id="&lt;Path&gt;" class="s1" d="M398.5 617.6h-28l31.1 25.8h10.9l-7.3-11.1 21.2 11.1h11.2z"/><g id="&lt;Group&gt;"><path id="&lt;Path&gt;" class="s1" d="M177.5 643.4h11.2l24.7-12.9-10.8 12.9h10.8l31.2-25.8h-28z"/><path id="&lt;Path&gt;" class="s2" d="M207.7 643.4l25.8-25.8h-16.9l-39.1 25.8h6l29.9-16.5-10.8 16.5z"/></g><path id="&lt;Compound Path&gt;" fill-rule="evenodd" class="s1" d="M497.4 643.4v122.3H120.5V643.4zm-6.1 7.9H188.7v40h302.6z"/><path id="&lt;Compound Path&gt;" fill-rule="evenodd" class="s0" d="M497.4 643.4v122.3h-317V643.4zm-6.1 7.9H188.7v40h302.6z"/><path id="&lt;Path&gt;" class="s1" d="M491.2 691.3H436v-40h55.2zm-222.7 0h-79.8v-20h79.8zm56.4 0h-51.3v-11.9h51.3zm72.5 0h-60.6V667h60.6zM248.8 700l-1.5 4.8h-19.6l-1.5-4.8h-37.5v53.1h97.7V700zm102.3 0l-1.5 4.8H330l-1.5-4.8h-37.6v53.1h97.8V700zm102.3 0l-1.5 4.8h-19.6l-1.5-4.8h-37.6v53.1h97.7V700z"/><g id="&lt;Group&gt;"><path id="&lt;Path&gt;" class="s1" d="M431 621H171.4c-3.9 0-7.1-3.2-7.1-7.1V462.7c0-3.9 3.2-7.1 7.1-7.1H431c3.9 0 7 3.2 7 7.1v151.2c0 3.9-3.1 7.1-7 7.1z"/><path id="&lt;Path&gt;" class="s3" d="M437.4 621H177.8c-3.9 0-7-3.2-7-7.1V462.7c0-3.9 3.1-7.1 7-7.1h259.6c3.9 0 7.1 3.2 7.1 7.1v151.2c0 3.9-3.2 7.1-7.1 7.1z"/><path id="&lt;Path&gt;" class="s2" d="M178.8 613V463.7h257.6V613z"/></g></g><g id="&lt;Group&gt;"><path id="&lt;Path&gt;" class="s1" d="M782.5 236.3c0 21-16.9 37.9-37.9 37.9-20.9 0-37.8-16.9-37.8-37.9 0-20.9 16.9-37.8 37.8-37.8 21 0 37.9 16.9 37.9 37.8z"/><path id="&lt;Path&gt;" class="s2" d="M776.8 236.3c0 17.8-14.4 32.3-32.2 32.3-17.8 0-32.2-14.5-32.2-32.3 0-17.7 14.4-32.2 32.2-32.2 17.8 0 32.2 14.5 32.2 32.2z"/><path id="&lt;Path&gt;" d="M743.1 214.3v22.5l-14.9-8.5" fill="#f0f0f0" stroke="#e0e0e0" stroke-linecap="round" stroke-linejoin="round" stroke-width="4"/></g><g id="&lt;Group&gt;"><path id="&lt;Path&gt;" class="s3" d="M228.7 236.5s-1.8-12.1 7-19.8c8.8-7.7 8-12.3 5.5-12.9-2.5-.6-4.8 7.1-8.7 9.2 0 0-.1-11 3.8-15 3.9-4.1 6-14.5 2.3-14.7-3.8-.2-4.2 6.2-4.9 10.7-.8 4.5-5 10.9-5 10.9s-.8-9.8-3.3-13.9c-2.5-4 4.2-13.3 1.6-17.4-2.6-4-7.2 3.7-6.9 12.4.4 8.7 6.2 17.9 4.9 27 0 0-2.6-6.3-4.9-6.9-2.3-.6-4.6-4.8-6.1-6.4-1.6-1.5-3.5 3.9 0 8.9 3.4 5 12.3 18.4 11 29.3z"/><path id="&lt;Path&gt;" class="s3" d="M234 231l2.9 18.1c.9 5.5-3.5 10.6-9.1 10.6h-3.1c-5.6 0-9.9-5.1-9-10.6l2.8-18.1z"/><path id="&lt;Path&gt;" class="s1" d="M190.5 253h203.4v10.5H190.5z"/><path id="&lt;Path&gt;" class="s0" d="M375.6 253h8.9v-38.5h-8.9zm-43.4 0h9v-38.5h-9zm-55.7-1.5l8.8 1.5 6.6-38-8.9-1.5zm88 1.5h8.9v-33.4h-8.9zm-20.6 0h8.9v-33.4h-8.9zm-52 0h8.9v-33.4h-8.9zm21.3-1.9l8.8 1.9 7.2-32.6-8.7-2zm43.5 1.9h4.5v-40.4h-4.5zm-53.3 0h4.5v-40.4h-4.5z"/></g><g id="&lt;Group&gt;"><path id="&lt;Path&gt;" class="s1" d="M393.9 331H190.5v10.5h203.4z"/><path id="&lt;Path&gt;" class="s0" d="M208.8 331h-9v-38.5h9zm43.3 0h-8.9v-38.5h8.9zm55.8-1.5L299 331l-6.5-37.9 8.8-1.5zm-88 1.5h-9v-33.4h9zm20.6 0h-9v-33.4h9zm52 0h-9v-33.4h9zm-21.3-1.9l-8.8 1.9-7.3-32.6 8.8-2zm-43.6 1.9h-4.4v-40.4h4.4zm53.4 0h-4.5v-40.4h4.5zm93.4-30.4h-43.7v30.1h43.7z"/></g></g></g><g id="Shadow"><path id="&lt;Path&gt; 359" d="M887.8 832.5c0 12.5-173.6 22.6-387.8 22.6-214.2 0-387.8-10.1-387.8-22.6 0-12.5 173.6-22.7 387.8-22.7 214.2 0 387.8 10.2 387.8 22.7z" fill="#f5f5f5"/></g><g id="Plant"><g id="&lt;Group&gt;"><g id="&lt;Group&gt;"><path id="&lt;Path&gt;" class="s6" d="M148.5 688.3s11.7-9.8 21.7 0c10 9.7 11.9 69.9 11.9 69.9m.8 11.7s-6.8-70.7 19-100.4m-21.4 92.9s5.3-80.5-14.2-98.3"/><path id="&lt;Path&gt;" class="s6" d="M182.9 762.4s.5-53.2 14.9-61.4c14.4-8.3 21.8 18.7 21.8 18.7m-42.4 42.7s2.4-40.8-8.8-55.4c-11.2-14.6-22.9 6.3-22.9 6.3m35.6 54.6s-7.2-95.5 4.8-111.7"/></g><g id="&lt;Group&gt;"><path id="&lt;Path&gt;" class="s7" d="M210.2 708.7s-7.2 2.7-5.1 8.9c2.1 6.3 24.9 16.6 24.9 16.6s9.5-8.7.8-22.9c-8.8-14.2-20.4-7.1-20.6-2.6z"/><path id="&lt;Path&gt;" class="s8" d="M210.2 708.7s-7.2 2.7-5.1 8.9c2.1 6.3 24.9 16.6 24.9 16.6s9.5-8.7.8-22.9c-8.8-14.2-20.4-7.1-20.6-2.6z"/></g><g id="&lt;Group&gt;"><path id="&lt;Path&gt;" class="s7" d="M178.9 696.8s7.7-.3 8.1 6.3c.4 6.6-16.6 24.8-16.6 24.8s-12.2-4.3-9.6-20.8c2.7-16.5 16.2-14.4 18.1-10.3z"/><path id="&lt;Path&gt;" class="s8" d="M178.9 696.8s7.7-.3 8.1 6.3c.4 6.6-16.6 24.8-16.6 24.8s-12.2-4.3-9.6-20.8c2.7-16.5 16.2-14.4 18.1-10.3z"/></g><g id="&lt;Group&gt;"><path id="&lt;Path&gt;" class="s7" d="M172.4 665.2s5.1-.6 4.7-3.7c-.4-3.1-19.9-11.1-31.3 1.9 0 0 7.3 12.6 17.9 12.7 10.7.2 8.7-10.9 8.7-10.9z"/><path id="&lt;Path&gt;" class="s8" d="M172.4 665.2s5.1-.6 4.7-3.7c-.4-3.1-19.9-11.1-31.3 1.9 0 0 7.3 12.6 17.9 12.7 10.7.2 8.7-10.9 8.7-10.9z"/></g><g id="&lt;Group&gt;"><path id="&lt;Path&gt;" class="s7" d="M181.9 657.6s-4.6 2.3-5.9-.6c-1.3-2.8 11-19.9 27.6-15 0 0 .4 14.6-8.5 20.4-9 5.7-13.2-4.8-13.2-4.8z"/><path id="&lt;Path&gt;" class="s8" d="M181.9 657.6s-4.6 2.3-5.9-.6c-1.3-2.8 11-19.9 27.6-15 0 0 .4 14.6-8.5 20.4-9 5.7-13.2-4.8-13.2-4.8z"/></g><g id="&lt;Group&gt;"><path id="&lt;Path&gt;" class="s7" d="M157.7 706.2s3.6-2.8-.2-4.2c-3.8-1.4-22.5-1-22.7 17.5 0 0 21.7 3.6 24.4-3.5 2.7-7-1.5-9.8-1.5-9.8z"/><path id="&lt;Path&gt;" class="s8" d="M157.7 706.2s3.6-2.8-.2-4.2c-3.8-1.4-22.5-1-22.7 17.5 0 0 21.7 3.6 24.4-3.5 2.7-7-1.5-9.8-1.5-9.8z"/></g><g id="&lt;Group&gt;"><path id="&lt;Path&gt;" class="s7" d="M202.1 664.7s-3.6-2.8.3-4.2c3.8-1.4 22.4-1 22.6 17.5 0 0-21.7 3.6-24.4-3.4-2.7-7.1 1.5-9.9 1.5-9.9z"/><path id="&lt;Path&gt;" class="s8" d="M202.1 664.7s-3.6-2.8.3-4.2c3.8-1.4 22.4-1 22.6 17.5 0 0-21.7 3.6-24.4-3.4-2.7-7.1 1.5-9.9 1.5-9.9z"/></g><g id="&lt;Group&gt;"><path id="&lt;Path&gt;" class="s7" d="M190.6 679.6s-.3-3.4 2.5-2.1c2.8 1.4 12.5 11.9 2.4 21.8 0 0-13.6-10-11.1-15.3 2.4-5.2 6.2-4.4 6.2-4.4z"/><path id="&lt;Path&gt;" class="s8" d="M190.6 679.6s-.3-3.4 2.5-2.1c2.8 1.4 12.5 11.9 2.4 21.8 0 0-13.6-10-11.1-15.3 2.4-5.2 6.2-4.4 6.2-4.4z"/></g><g id="&lt;Group&gt;"><path id="&lt;Path&gt;" class="s7" d="M154.6 684.6s2.1-2.8-1-3.1c-3.1-.4-16.9 3.3-13.7 17.1 0 0 16.9-1.3 17.6-7 .7-5.7-2.9-7-2.9-7z"/><path id="&lt;Path&gt;" class="s8" d="M154.6 684.6s2.1-2.8-1-3.1c-3.1-.4-16.9 3.3-13.7 17.1 0 0 16.9-1.3 17.6-7 .7-5.7-2.9-7-2.9-7z"/></g><path id="&lt;Path&gt;" class="s7" d="M211.5 813.7h-57.8l-6.2-63.3h70.2z"/><path id="&lt;Path&gt;" class="s9" d="M211.5 813.7h-57.8l-6.2-63.3h70.2z"/><path id="&lt;Path&gt;" class="s7" d="M220.8 757.4h-76.4v-14h76.4z"/><path id="&lt;Path&gt;" class="s8" d="M220.8 757.4h-76.4v-14h76.4z"/></g></g><g id="Interior"><g id="&lt;Group&gt;"><g id="&lt;Group&gt;"><path id="&lt;Path&gt;" class="s10" d="M680 813.7l.2-.8 3.4-39.5h14.3l-10.2 40.3m125.8 0l-.1-.8-3.4-39.5h-14.4l10.3 40.3"/></g><g id="&lt;Group&gt;"><path id="&lt;Path&gt;" class="s10" d="M661 813.7l.2-.8 6.5-39.5h14.4l-13.4 40.3m163.8 0l-.2-.8-6.5-39.5h-14.4l13.5 40.3"/></g><g id="&lt;Group&gt;" opacity=".2"><path id="&lt;Path&gt;" class="s11" d="M661 813.7l.2-.8 6.5-39.5h14.4l-13.4 40.3m163.8 0l-.2-.8-6.5-39.5h-14.4l13.5 40.3"/></g><path id="&lt;Path&gt;" class="s7" d="M833.5 536.6H660c-4.4 0-8 3.5-8 7.9v229.7c0 4.4 3.6 8 8 8h173.5c4.4 0 8-3.6 8-8V544.5c0-4.4-3.6-7.9-8-7.9z"/><path id="&lt;Path&gt;" d="M833.5 536.6H660c-4.4 0-8 3.5-8 7.9v229.7c0 4.4 3.6 8 8 8h173.5c4.4 0 8-3.6 8-8V544.5c0-4.4-3.6-7.9-8-7.9z" opacity=".4" fill="#fff"/><g id="&lt;Group&gt;"><path id="&lt;Path&gt;" class="s9" d="M833.8 678.8H659.7v-88.7h174.1zm0 94.6H659.7v-88.7h174.1zm0-189.2H659.7v-38.8h174.1z"/></g><path id="&lt;Path&gt;" d="M761 551.9h-28.5c-1.7 0-3.3-1-4.1-2.6l-1.9-3.9H767l-1.9 3.9c-.8 1.6-2.4 2.6-4.1 2.6zm0 44.7h-28.5c-1.7 0-3.3-1-4.1-2.6l-1.9-3.9H767l-1.9 3.9c-.8 1.6-2.4 2.6-4.1 2.6zm0 94.6h-28.5c-1.7 0-3.3-1-4.1-2.6l-1.9-3.9H767l-1.9 3.9c-.8 1.6-2.4 2.6-4.1 2.6z" opacity=".5" fill="#000"/><g id="&lt;Group&gt;"><path id="&lt;Path&gt;" class="s7" d="M797.4 509.5l15 27.1h-18.7z"/><path id="&lt;Path&gt;" class="s14" d="M797.4 509.5l15 27.1h-18.7z"/><path id="&lt;Path&gt;" class="s7" d="M802.4 536.6H767l11.1-45.9h35.4z"/><path id="&lt;Path&gt;" class="s9" d="M771.9 532.9l9.3-38.5h27.4l-9.3 38.5z"/></g><g id="&lt;Group&gt;"><path id="&lt;Path&gt;" class="s7" d="M698.8 515.7l-8.8 20.9h23.5z"/><path id="&lt;Path&gt;" class="s7" d="M746.8 536.6h-45L691.2 504h45z"/><path id="&lt;Path&gt;" class="s8" d="M746.8 536.6h-45L691.2 504h45z"/><path id="&lt;Path&gt;" class="s9" d="M704.3 531.9l-7.5-23.2h36.9l7.5 23.2z"/></g></g></g><g id="Device"><g id="&lt;Group&gt;"><path id="&lt;Path&gt;" class="s10" d="M546.5 843.2H259.1c-11.5 0-20.8-9.3-20.8-20.8v-510c0-11.5 9.3-20.8 20.8-20.8h287.4c11.4 0 20.8 9.3 20.8 20.8v510c0 11.5-9.4 20.8-20.8 20.8z"/><path id="&lt;Path&gt;" class="s7" d="M556.2 311.4v511c0 4.5-3.7 8-8.2 8H256.7c-4.1 0-7.3-3.2-7.3-7.4V310.7c0-3.6 2.7-6.7 6.3-6.7h72.8c2 0 3.9 1.3 4.7 3.2l3 7.5c.8 1.9 2.6 3.2 4.7 3.2h124c2 0 3.9-1.3 4.6-3.2l3.1-7.4c.7-2 2.6-3.3 4.6-3.3H549c4 0 7.2 3.4 7.2 7.4z"/><path id="&lt;Path&gt;" d="M556.2 311.4v511c0 4.5-3.7 8-8.2 8H256.7c-4.1 0-7.3-3.2-7.3-7.4V310.7c0-3.6 2.7-6.7 6.3-6.7h72.8c2 0 3.9 1.3 4.7 3.2l3 7.5c.8 1.9 2.6 3.2 4.7 3.2h124c2 0 3.9-1.3 4.6-3.2l3.1-7.4c.7-2 2.6-3.3 4.6-3.3H549c4 0 7.2 3.4 7.2 7.4z" opacity=".3" fill="#000"/><path id="&lt;Path&gt;" class="s16" d="M556.2 338.4v454.4H249.4V338.4z"/><g id="&lt;Group&gt;"><g id="&lt;Group&gt;"><path id="&lt;Path&gt;" class="s16" d="M283.2 326.2h3.8v-5.1h-3.8zm-6.2 0h3.8v-6.8H277zm-6.1 0h3.8v-8.4h-3.8zm-6.2 0h3.8v-10.1h-3.8z"/></g><g id="&lt;Group&gt;"><path id="&lt;Path&gt;" class="s16" d="M521.4 324.3h-2.2v-5h2.2zm1.6 1.9h17.9v-8.8H523z"/></g></g><g id="&lt;Group&gt;"><path id="&lt;Path&gt;" class="s16" d="M402.7 304.7c0 2.3-1.8 4.2-4.2 4.2-2.3 0-4.2-1.9-4.2-4.2 0-2.3 1.9-4.2 4.2-4.2 2.4 0 4.2 1.9 4.2 4.2zm8.6 0c0 1.5-1.2 2.7-2.7 2.7-1.5 0-2.7-1.2-2.7-2.7 0-1.5 1.2-2.7 2.7-2.7 1.5 0 2.7 1.2 2.7 2.7z"/></g><path id="&lt;Path&gt;" class="s7" d="M556.2 390.9H249.4v-52.5h306.8z"/><g id="&lt;Group&gt;"><g id="&lt;Group&gt;"><g id="&lt;Group&gt;"><path id="&lt;Compound Path&gt;" fill-rule="evenodd" class="s11" d="M539.6 368.9q-.4 1.6-1.2 2.9l2.5 2.5-2.8 2.8-2.6-2.5q-1.3.9-2.8 1.2v3.6h-4.1v-3.6q-1.5-.3-2.8-1.2l-2.5 2.5-2.9-2.8 2.5-2.5q-.8-1.3-1.2-2.9h-3.5v-4h3.5q.4-1.6 1.2-2.9l-2.5-2.5 2.9-2.9 2.5 2.6q1.3-.9 2.8-1.2v-3.6h4.1v3.6q1.5.3 2.8 1.2l2.6-2.6 2.8 2.9-2.5 2.5q.8 1.3 1.2 2.9h3.5v4zm-5.2-2c0-2.1-1.6-3.7-3.7-3.7-2 0-3.7 1.6-3.7 3.7s1.7 3.7 3.7 3.7c2.1 0 3.7-1.6 3.7-3.7z"/></g></g><path id="&lt;Path&gt;" class="s11" d="M275.9 355.9l-13.5 12.8h4.2v9.2h18.7v-9.2h4.1z"/></g><g id="&lt;Group&gt;"><path id="&lt;Path&gt;" d="M459.8 478.9c0 14.3-5.3 27.3-13.9 37.4-10.5 12-25.9 19.6-43.1 19.6-17.2 0-32.6-7.6-43.1-19.6-8.7-10.1-13.9-23.1-13.9-37.4 0-31.4 25.5-57 57-57s57 25.6 57 57z" opacity=".4" fill="#000"/><path id="&lt;Path&gt;" d="M445.9 516.3c-10.5 12-25.9 19.6-43.1 19.6-17.2 0-32.6-7.6-43.1-19.6 4.2-15.1 16-26.9 31-31.1-6-3.9-9.9-10.7-9.9-18.4 0-12.2 9.8-22.1 22-22.1s22 9.9 22 22.1c0 7.7-3.9 14.5-9.9 18.4 15 4.2 26.8 16 31 31.1z" opacity=".8" fill="#fff"/></g><g id="&lt;Group&gt;"><g id="&lt;Group&gt;" opacity=".5"><path id="&lt;Compound Path&gt;" class="s19" d="M295.8 569.8v1h-6.1v-8.4h5.9v1h-4.7v2.6h4.2v1h-4.2v2.8zm1.1-2.8h3.3v1h-3.3zm15.6.1v3.7h-1.2v-3.5c0-1.3-.6-1.9-1.6-1.9-1.2 0-1.9.7-1.9 2.1v3.3h-1.2v-3.5c0-1.3-.6-1.9-1.6-1.9-1.2 0-1.9.7-1.9 2.1v3.3h-1.2v-6.4h1.1v1c.5-.7 1.3-1 2.2-1 1 0 1.8.4 2.2 1.2.5-.8 1.4-1.2 2.5-1.2 1.5 0 2.6.9 2.6 2.7z"/><path id="&lt;Compound Path&gt;" fill-rule="evenodd" class="s19" d="M319.7 567v3.8h-1.1v-.8c-.4.5-1.1.9-2.1.9-1.5 0-2.4-.8-2.4-1.9 0-1 .7-1.9 2.6-1.9h1.8v-.2c0-1-.6-1.5-1.7-1.5-.8 0-1.5.2-2 .7l-.5-.9c.7-.5 1.6-.8 2.6-.8 1.8 0 2.8.8 2.8 2.6zm-1.2 1.9v-.9h-1.8c-1.1 0-1.4.4-1.4 1s.5 1 1.4 1c.8 0 1.5-.4 1.8-1.1z"/><path id="&lt;Compound Path&gt;" class="s19" d="M321.6 562.5c0-.4.3-.8.8-.8.4 0 .7.3.7.8 0 .4-.3.7-.7.7-.5 0-.8-.3-.8-.7zm.2 1.9h1.1v6.4h-1.1zm3.3-2.5h1.2v8.9h-1.2z"/></g><g id="&lt;Group&gt;" opacity=".8"><path id="&lt;Path&gt;" class="s11" d="M502.1 612.4H303.5c-8.3 0-15.1-6.8-15.1-15.1s6.8-15 15.1-15h198.6c8.3 0 15 6.7 15 15s-6.7 15.1-15 15.1z"/></g></g><g id="&lt;Group&gt;"><g id="&lt;Group&gt;" opacity=".5"><path id="&lt;Compound Path&gt;" fill-rule="evenodd" class="s19" d="M296.5 639.3c0 1.9-1.3 3-3.5 3h-2.1v2.5h-1.2v-8.4h3.3c2.2 0 3.5 1.1 3.5 2.9zm-1.2 0c0-1.2-.8-1.9-2.4-1.9h-2v3.8h2c1.6 0 2.4-.7 2.4-1.9zm7.8 1.7v3.8H302v-.8c-.4.5-1.1.9-2.1.9-1.5 0-2.4-.8-2.4-1.9 0-1 .7-1.9 2.6-1.9h1.8v-.2c0-1-.6-1.5-1.7-1.5-.8 0-1.5.2-2 .7l-.5-.9c.7-.5 1.6-.8 2.6-.8 1.8 0 2.8.8 2.8 2.6zm-1.2 1.9v-.9h-1.8c-1.1 0-1.4.4-1.4 1s.5 1 1.4 1c.8 0 1.5-.4 1.8-1.1z"/><path id="&lt;Compound Path&gt;" class="s19" d="M304.4 644.1l.5-.9c.5.4 1.4.7 2.2.7 1.1 0 1.5-.3 1.5-.9 0-1.4-4-.2-4-2.7 0-1.1 1-1.9 2.6-1.9.9 0 1.8.2 2.4.6l-.5.9c-.6-.4-1.2-.5-1.9-.5-1 0-1.5.3-1.5.8 0 1.5 4.1.3 4.1 2.8 0 1.1-1.1 1.9-2.8 1.9-1 0-2.1-.4-2.6-.8zm6 0l.5-.9c.5.4 1.4.7 2.2.7 1.1 0 1.5-.3 1.5-.9 0-1.4-4-.2-4-2.7 0-1.1 1-1.9 2.7-1.9.8 0 1.7.2 2.3.6l-.5.9c-.6-.4-1.2-.5-1.9-.5-1 0-1.5.3-1.5.8 0 1.5 4.1.3 4.1 2.8 0 1.1-1.1 1.9-2.8 1.9-1 0-2.1-.4-2.6-.8zm16.3-5.7l-2.4 6.4h-1.1l-1.8-4.8-1.9 4.8h-1.1l-2.3-6.4h1.1l1.8 5.1 1.9-5.1h1l1.9 5.1 1.9-5.1z"/><path id="&lt;Compound Path&gt;" fill-rule="evenodd" class="s19" d="M327.1 641.6c0-1.9 1.4-3.2 3.3-3.2s3.3 1.3 3.3 3.2c0 1.9-1.4 3.3-3.3 3.3s-3.3-1.4-3.3-3.3zm5.5 0c0-1.3-.9-2.2-2.2-2.2-1.2 0-2.1.9-2.1 2.2 0 1.4.9 2.3 2.1 2.3 1.3 0 2.2-.9 2.2-2.3z"/><path id="&lt;Compound Path&gt;" class="s19" d="M338.7 638.4v1.1h-.2c-1.3 0-2 .7-2 2.1v3.2h-1.2v-6.4h1.1v1.1c.4-.7 1.2-1.1 2.3-1.1z"/><path id="&lt;Compound Path&gt;" fill-rule="evenodd" class="s19" d="M346.1 635.9v8.9H345v-1c-.5.7-1.3 1.1-2.3 1.1-1.8 0-3.2-1.3-3.2-3.3 0-1.9 1.4-3.2 3.2-3.2.9 0 1.7.3 2.2 1v-3.5zm-1.1 5.7c0-1.3-.9-2.2-2.1-2.2-1.3 0-2.2.9-2.2 2.2 0 1.4.9 2.3 2.2 2.3 1.2 0 2.1-.9 2.1-2.3z"/></g><g id="&lt;Group&gt;" opacity=".8"><path id="&lt;Path&gt;" class="s11" d="M502.1 686.4H303.5c-8.3 0-15.1-6.8-15.1-15.1s6.8-15 15.1-15h198.6c8.3 0 15 6.7 15 15s-6.7 15.1-15 15.1z"/></g></g><g id="&lt;Group&gt;"><path id="&lt;Path&gt;" class="s7" d="M452.1 748.4h-98.6c-8.3 0-15.1-6.8-15.1-15.1s6.8-15 15.1-15h98.6c8.3 0 15 6.7 15 15s-6.7 15.1-15 15.1z"/><text id="Sign in" transform="matrix(2 0 0 2 373.124 739.846)"><tspan x="0" y="0" style="white-space:pre" font-size="8" fill="#fff" font-weight="500" font-family="&quot;Montserrat-Medium&quot;,&quot;Montserrat&quot;">Sign in</tspan></text></g></g></g><g id="Speech bubbles"><g id="&lt;Group&gt;"><path id="&lt;Path&gt;" class="s7" d="M760.2 369.8l-85.9-.8c-4.1 0-7.3-3.4-7.3-7.4l.8-25.9c.1-4.1 3.4-7.4 7.5-7.3l85.9.8c4.1 0 7.3 3.4 7.3 7.5l-.8 25.9c-.1 4-3.4 7.3-7.5 7.2z"/><path id="&lt;Path&gt;" class="s7" d="M716 363.3s-10.9 24.1-34.7 31.3c0 0 13.2-7.4 12.5-32.6z"/><g id="&lt;Group&gt;"><path id="&lt;Compound Path&gt;" class="s11" d="M689.3 348.8l2.1 1.1-1 1.6-2-1.3v2.3h-1.8l.1-2.3-2.1 1.3-.9-1.6 2-1.1-2-1.1.9-1.6 2.1 1.3-.1-2.3h1.8v2.3l2-1.3 1 1.6zm12.3 0l2 1.1-.9 1.6-2.1-1.3.1 2.3h-1.8v-2.3l-2 1.3-.9-1.6 2-1.1-2-1.1.9-1.6 2 1.3v-2.3h1.8l-.1 2.3 2.1-1.3.9 1.6zm12.3 0l2 1.1-.9 1.6-2.1-1.3.1 2.3h-1.8v-2.3l-2 1.3-.9-1.6 2-1.1-2-1.1.9-1.6 2 1.3v-2.3h1.8l-.1 2.3 2.1-1.3.9 1.6zm12.3 0l2 1.1-.9 1.6-2.1-1.3.1 2.3h-1.8v-2.3l-2.1 1.3-.9-1.6 2.1-1.1-2.1-1.1.9-1.6 2.1 1.3v-2.3h1.8l-.1 2.3 2.1-1.3.9 1.6zm12.2 0l2.1 1.1-.9 1.6-2.1-1.3v2.3h-1.7v-2.3l-2.1 1.3-.9-1.6 2.1-1.1-2.1-1.1.9-1.6 2.1 1.3v-2.3h1.7v2.3l2.1-1.3.9 1.6zm12.3 0l2.1 1.1-.9 1.6-2.1-1.3v2.3h-1.7v-2.3l-2.1 1.3-.9-1.6 2.1-1.1-2.1-1.1.9-1.6 2.1 1.3v-2.3h1.7v2.3l2.1-1.3.9 1.6z"/></g></g></g><g id="Character"><g id="&lt;Group&gt;"><g id="&lt;Group&gt;"><path id="&lt;Path&gt;" class="s21" d="M624.3 411.9c11.4 1.8 22.5 37.1 27.3 40 4.9 2.9.7-33 .7-33l9.2-1.3s10.8 54.3-5 53.9c-12-.3-26.4-20.5-29.9-30.7z"/><path id="&lt;Path&gt;" class="s22" d="M656.5 471.5c-7.3-.2-15.5-7.7-21.6-15.9-3.9-5.2-6.9-10.8-8.3-14.8l-1.2-14.8-1.1-14.1c11.4 1.8 22.5 37.1 27.3 40 4.9 2.9.7-33 .7-33l9.2-1.3s10.8 54.3-5 53.9z"/></g><path id="&lt;Path&gt;" class="s14" d="M634.9 455.6c-3.9-5.2-6.9-10.8-8.3-14.8l-1.2-14.8s12.5 12.5 9.5 29.6z"/><path id="&lt;Path&gt;" class="s10" d="M582.2 339.1s-20.4-.2-19.4 27.8 20.5 28.4 14 36.5c0 0 16.4 8.3 37 0 0 0-3.6-1.4-1.9-6.6 1.7-5.1 11.1-12.5 12.1-23.3.9-10.8-20.8-37.2-41.8-34.4z"/><path id="&lt;Path&gt;" class="s10" d="M602.3 392.8s26-4.9 21.7-29.6c-3.6-20.2-13.1-26.7-21.7-29.6-7.4-2.5-15.2-.3-20.6 6.9 0 0-17.7-5-14.6 24 3.1 29 22.2 41.5 35.2 28.3z"/><path id="&lt;Path&gt;" class="s21" d="M649.7 807l-11.6-5.9 4.2-17.3 3.9-15.8 14.6 4.7-5.9 18.2z"/><g id="&lt;Group&gt;"><path id="&lt;Path&gt;" class="s10" d="M634.9 798.3c.7-1.2 16.2 7.8 16.2 7.8S656 821 664.4 828c8.5 7 .3 10.1-10.4 4.8-10.7-5.3-18.9-9.4-26.5-13.2-7.6-3.8.4-7.9 7.4-21.3z"/><g id="&lt;Group&gt;"><path id="&lt;Compound Path&gt;" fill-rule="evenodd" class="s7" d="M656.4 813.7c-2-1.5-4-4-4.5-4.7q-.1 0-.1-.1v-.3q0-.1.1-.2c.2-.1 3.4-3.2 6-3q1.2.1 2 1.1.9 1 .4 1.8c-.5.9-2 1.1-3.7 1.2 1.5.5 2.8 1.2 3.4 2.2q.5.7.3 1.5c-.2 1-.8 1.4-1.2 1.5-.8.2-1.7-.3-2.7-1zm-2.9-4.2c1.8 2.2 4.3 4.5 5.4 4.3.1-.1.4-.1.5-.8q.1-.4-.2-.8c-.8-1.3-3.7-2.2-5.7-2.7zm5.3-2.8q-.4-.3-1-.4c-1.4-.1-3.3 1.2-4.4 2.1 2.8.3 5.7.2 6.1-.5.1-.3-.1-.6-.3-.9q-.2-.2-.4-.3z"/></g></g><path id="&lt;Path&gt;" class="s14" d="M654.8 791.2l-12.6-7.1 4-16 14.6 4.7z"/><path id="&lt;Path&gt;" class="s21" d="M629.3 821.4h-13.2l-3.8-17-3.4-15.6 15.4-2.3L627 805z"/><g id="&lt;Group&gt;"><path id="&lt;Path&gt;" class="s10" d="M611.7 820.9c0-1.5 17.9-.3 17.9-.3s11.1 11.2 21.8 13.7c10.7 2.5 4.7 8.9-7.3 8.9h-29.6c-8.5 0-3.1-7.2-2.8-22.3z"/><g id="&lt;Group&gt;"><path id="&lt;Compound Path&gt;" fill-rule="evenodd" class="s7" d="M639.1 825.2c-2.5 0-6.5-1.9-7.5-2.3q0-.1-.1-.1l-.1-.1q-.1-.2 0-.4c.1-.2 1.6-4.3 4-5.4q1.2-.4 2.3.1 1.2.6 1.2 1.5c-.1 1-1.3 1.9-2.8 2.7 1.5-.2 3.1-.1 4 .4q.8.4 1 1.2c.2 1.1-.1 1.6-.5 1.9-.3.3-.9.5-1.5.5zm-5.8-2.6c2.6 1.1 5.9 2.1 6.7 1.4.1-.1.3-.2.2-.9q-.1-.4-.5-.7c-1.3-.7-4.4-.3-6.4.2zm3.2-4.9q-.4 0-.7.1c-1.4.6-2.5 2.5-3.1 3.9 2.6-1 5.2-2.4 5.2-3.2.1-.3-.3-.5-.6-.6q-.4-.2-.8-.2z"/></g></g><path id="&lt;Path&gt;" class="s14" d="M627 805.4l-14.7-.6-3.4-15.8 15.4-2.4z"/><g id="&lt;Group&gt;"><path id="&lt;Path&gt;" class="s10" d="M564.8 510.3l32.5-5.2 29.4-6 7.9 47.9s41.5 60 51.5 101.3c10 41.2-27.6 137-27.6 137l-17.3-7.6s12-92.1 11.7-103.2c-.2-7.2-23.8-40.4-40.3-62.8-.5 5.6 4.9 61.7 4.9 61.7l11.6 122.8h-21.7c-75-232.7-42.6-285.9-42.6-285.9z"/><path id="&lt;Path&gt;" class="s16" d="M607.4 796.2h21.7l-11.6-122.8s-5.4-56.4-4.9-61.7c3.2 4.4 6.8 9.3 10.4 14.2 14.5 20.3 29.8 42.8 29.9 48.6.3 11.1-11.7 103.2-11.7 103.2l17.3 7.6s37.6-95.8 27.6-137C676.1 607 634.6 547 634.6 547l-7.9-47.9-29.4 6-32.5 5.2s-32.4 53.2 42.6 285.9z"/></g><path id="&lt;Path&gt;" class="s7" d="M640.3 769.9l25.5 8.8-5.7 8.8-21-7.5zm-36 23.3l27.3-3.7-1.4 10.2-22.5 2.8z"/><path id="&lt;Path&gt;" class="s14" d="M612.6 611.7c3.2 4.4 6.8 9.3 10.4 14.2-5.8-29.6-12.5-58.5-12.5-58.5-1.5 23.4 2.1 44.3 2.1 44.3z"/><g id="&lt;Group&gt;"><path id="&lt;Path&gt;" class="s7" d="M626.1 501l-59.2 4.1s-.8-31.8-5.5-48.3c-.6-2.2-1.3-4.5-2.1-7-1.1-3.5-2.4-7.2-3.8-11.3-.4-.9-1.2-3.3-2.3-6.1-1.7-4.8-.4-9.8 2.9-13 1.6-1.6 3.7-2.8 6-3.3 4.4-1 8.7-1.9 11-2.2q13.3-2.1 26.8-2.6c7.6 0 16 .5 20.8.8 2.6.2 4.2.3 4.2.3s1.9.5 3.1 11.5c1.1 10.3.5 39.4-1.9 77.1z"/></g><path id="&lt;Path&gt;" class="s21" d="M597.9 423.9c-14.9-2.7-19.1-9.3-19.1-9.3 10-8.6 2.9-24.6 2.9-24.6l17.9 4.3c-.6 3-1 5.5-1.1 7.6-.7 11 4.3 11.4 4.3 11.4 2.8 6.1-4.9 10.6-4.9 10.6z"/><path id="&lt;Path&gt;" class="s14" d="M599.6 394.3c-.6 3-1 5.5-1.1 7.6-8.6-2.4-16.8-11.9-16.8-11.9z"/><g id="&lt;Group&gt;"><path id="&lt;Path&gt;" class="s21" d="M598.3 343c15.7 1.5 20 10.3 19.7 26.6-.4 20.4-6.2 34.4-25.4 28.3-26.2-8.3-20.4-57.2 5.7-54.9z"/><path id="&lt;Path&gt;" d="M607.9 367.8s1.8 4.3 4 7c0 0-1.6 2-4.3 1.4z" fill="#d58745"/><g id="&lt;Group&gt;"><path id="&lt;Path&gt;" class="s10" d="M598.4 365.7c-.1 1.3-.9 2.3-1.7 2.2-.9 0-1.5-1.1-1.4-2.4.1-1.3.8-2.3 1.7-2.3.9.1 1.5 1.2 1.4 2.5z"/><path id="&lt;Path&gt;" class="s10" d="M596.6 363.3l2.9-1s-1.5 2.3-2.9 1z"/></g><g id="&lt;Group&gt;"><path id="&lt;Path&gt;" class="s10" d="M614.5 366.5c-.1 1.3-.9 2.3-1.7 2.2-.9 0-1.5-1.1-1.4-2.4.1-1.3.8-2.3 1.7-2.3.9.1 1.5 1.2 1.4 2.5z"/><path id="&lt;Path&gt;" class="s10" d="M612.7 364.1l2.9-1s-1.5 2.3-2.9 1z"/></g><g id="&lt;Group&gt;"><path id="&lt;Path&gt;" class="s24" d="M599.2 354.8s-4.3-1-7 1.8"/></g><g id="&lt;Group&gt;"><path id="&lt;Path&gt;" class="s24" d="M610.7 355.2s2.9-.8 6.1 1.8"/></g><path id="&lt;Path&gt;" class="s10" d="M578.7 368s8.5-12.3 8.3-22.3c0 0 32.3-10 31 21.8 0 0 5.5-27.8-21.4-30.9-26.9-3-30.4 36.5-17.5 49.5 0 0-5.7-10.5-.4-18.1z"/><path id="&lt;Path&gt;" class="s21" d="M581 371.5c.1-2.5-2.1-7-6.9-6.9-4.9.1-8.1 9.8 3.8 13.3 1.7.5 2.8-1.1 3.1-6.4z"/><path id="&lt;Path&gt;" class="s24" d="M606.5 382.8s-6.6.5-8.4-5.6"/></g><path id="&lt;Path&gt;" class="s24" d="M587.2 345s24.2-3.4 30.5 17.3"/><g id="&lt;Group&gt;"><path id="&lt;Path&gt;" class="s21" d="M658.4 396.8s8.3-.1 8.5 1.3c.3 1.5-.2 13.6-1.3 15.3-1.1 1.7-4.1 4.1-4.1 4.1l.8 21.5-4.9 1.7-4.5-19.6s-5.1-5-3.6-11.2c1.5-6.3 9.1-13.1 9.1-13.1z"/><path id="&lt;Path&gt;" class="s22" d="M658.4 396.8s8.3-.1 8.5 1.3c.3 1.5-.2 13.6-1.3 15.3-1.1 1.7-4.1 4.1-4.1 4.1l.8 21.5-4.9 1.7-4.5-19.6s-5.1-5-3.6-11.2c1.5-6.3 9.1-13.1 9.1-13.1z"/></g><g id="&lt;Group&gt;"><path id="&lt;Path&gt;" class="s10" d="M644.4 407.4c0 .8.6 1.4 1.4 1.3l14-1.1c.8 0 1.5-.7 1.5-1.5l1-28c0-.8-.6-1.5-1.4-1.5l-14.1 1.1c-.8.1-1.4.9-1.4 1.7z"/><path id="&lt;Path&gt;" class="s9" d="M646.9 379.1l-1 28.3c0 .8.4 1.3 1.2 1.2l11.9-.9c.8-.1 2.3-.6 2.3-1.4l1-28.4c0-.8-1.4-1.3-2.2-1.2l-11.9.9c-.8.1-1.3.7-1.3 1.5z"/></g><path id="&lt;Path&gt;" class="s21" d="M630.1 428.6l5.3-12.4s1.8-16.7 2.6-18.5c.9-1.8 14.5-1.1 15.9-1.2 1.5-.2 1.2 16.5-.2 18.3-1.4 1.7-7 3.1-7 3.1l-8.5 16.6zm-15-6.7c-1.5 5.7-7 10.1-18.5 10-7.3-.1-13.2-2.8-17.9-6.2-5.4-3.9-9-8.6-10.6-11l5-.8q13.3-2.1 26.8-2.6c4.8 0 9.8.2 14.1.4 1.4 3.4 1.9 7 1.1 10.2z"/><g id="&lt;Group&gt;"><path id="&lt;Path&gt;" class="s10" d="M566.8 500.6l-2.5 10.8 63.9-3.3-1.8-10.7z"/><g id="&lt;Group&gt;"><path id="&lt;Path&gt;" d="M601 500.7l.7 6.9c.1.7.7 1.3 1.5 1.2l9.2-.7c.8-.1 1.4-.7 1.3-1.5l-.6-6.9c-.1-.7-.8-1.3-1.5-1.2l-9.3.6c-.8.1-1.4.8-1.3 1.6zm7.5 2.3h3.5" stroke="#fff" stroke-width="2" fill="none" stroke-linecap="round" stroke-linejoin="round"/></g></g><path id="&lt;Path&gt;" class="s14" d="M575.6 454.7c-5.7 1.9-12-1.5-16.3-4.9-1.1-3.5-2.4-7.2-3.8-11.3-.4-.9-1.2-3.3-2.3-6.1-1.7-4.8-.4-9.8 2.9-13 10.9 10.2 27 32.7 19.5 35.3z"/><path id="&lt;Path&gt;" class="s21" d="M556 418c4.8-3.8 11.8-2.8 15.4 2.2 8.7 12.6 23.5 33.5 25.3 34.6 2.5 1.4 21.7-16.2 38.7-38.6l10.5 3.9s-27 55.6-46.2 55.8c-14.4.2-35.9-29-45.8-43.6-3.1-4.6-2.2-10.8 2.1-14.3z"/><path id="&lt;Path&gt;" class="s14" d="M575.6 520.3s-4.9 13.3-17 18v4.8s17.7-7.6 20.2-20.1zm-13.7 69.8l16.9-3.1 4 34-16.2 2.4-2.3-22.2 14.6-2.1-.8-8.4-.3 7.5-16.4 2.6z"/></g></g></svg>